<svg width="64" height="64" viewBox="0 0 64 64" fill="none" xmlns="http://www.w3.org/2000/svg">
<rect width="64" height="64" rx="16" fill="white"/>
<path d="M44 21L18 29L25 33L44 21Z" fill="#00A970"/>
<path fill-rule="evenodd" clip-rule="evenodd" d="M44.4543 20.7911C44.559 21.0189 44.4789 21.2889 44.267 21.4227L25.267 33.4227C25.1106 33.5215 24.9125 33.5259 24.7519 33.4341L17.7519 29.4341C17.5789 29.3352 17.4811 29.143 17.5031 28.9449C17.525 28.7469 17.6625 28.5807 17.853 28.5221L43.853 20.5221C44.0925 20.4484 44.3496 20.5634 44.4543 20.7911ZM19.2501 29.1385L24.9871 32.4168L40.559 22.5819L19.2501 29.1385Z" fill="black"/>
<path d="M31.5 35L44 21L42 41L31.5 35Z" fill="#00A970"/>
<path fill-rule="evenodd" clip-rule="evenodd" d="M44.2013 20.5423C44.3995 20.6294 44.5191 20.8343 44.4975 21.0497L42.4975 41.0497C42.4807 41.2183 42.3797 41.3668 42.2291 41.4444C42.0786 41.522 41.899 41.5181 41.7519 41.4341L31.2519 35.4341C31.1209 35.3593 31.0307 35.2293 31.0065 35.0803C30.9823 34.9314 31.0266 34.7795 31.127 34.667L43.627 20.667C43.7713 20.5055 44.003 20.4551 44.2013 20.5423ZM32.2843 34.8723L41.5791 40.1836L43.3496 22.4792L32.2843 34.8723Z" fill="black"/>
<path d="M34.5 37L31.6885 35.1256C31.5884 35.0589 31.4525 35.095 31.3987 35.2026L28.3895 41.221C28.2945 41.4109 28.522 41.5984 28.6903 41.469L34.5 37Z" fill="black"/>
<path fill-rule="evenodd" clip-rule="evenodd" d="M30.9515 34.979C31.1398 34.6024 31.6155 34.4761 31.9659 34.7096L34.7774 36.584C34.9115 36.6734 34.9943 36.822 34.9997 36.9831C35.0052 37.1442 34.9326 37.298 34.8049 37.3963L28.9952 41.8653C28.406 42.3185 27.6099 41.6622 27.9423 40.9974L30.9515 34.979ZM31.6939 35.7302L29.421 40.2762L33.6422 37.029L31.6939 35.7302Z" fill="black"/>
<path d="M25 33L28.2922 41.4657C28.3683 41.6612 28.6432 41.6659 28.7258 41.4731L31.4356 35.1502C31.4783 35.0507 31.5368 34.9588 31.6088 34.8781L44 21L25 33Z" fill="#00A970"/>
<path fill-rule="evenodd" clip-rule="evenodd" d="M44.3816 20.6769C44.5427 20.8671 44.539 21.147 44.373 21.333L31.9818 35.2111C31.9458 35.2515 31.9165 35.2974 31.8952 35.3472L29.1854 41.67C28.9264 42.2744 28.0646 42.2598 27.8262 41.6469L24.534 33.1812C24.4473 32.9582 24.5307 32.705 24.733 32.5772L43.733 20.5772C43.9438 20.4441 44.2205 20.4866 44.3816 20.6769ZM25.6154 33.2027L28.5225 40.6783L30.9761 34.9532C31.04 34.804 31.1278 34.6662 31.2359 34.5451L41.2522 23.3268L25.6154 33.2027Z" fill="black"/>
</svg>
