<svg width="64" height="64" viewBox="0 0 64 64" fill="none" xmlns="http://www.w3.org/2000/svg">
<path d="M16.2729 23.4491C16.3507 22.6276 17.0406 22 17.8658 22H49.0438C49.3533 22 49.612 22.2353 49.6412 22.5434L52.8963 56.9057C52.9519 57.4926 52.4903 58 51.9007 58H15.1983C14.0193 58 13.0961 56.9852 13.2073 55.8114L16.2729 23.4491Z" fill="black"/>
<path fill-rule="evenodd" clip-rule="evenodd" d="M15.2774 23.3548C15.4038 22.0198 16.5248 21 17.8658 21H49.0438C49.869 21 50.5589 21.6276 50.6367 22.4491L53.8918 56.8114C54.003 57.9852 53.0798 59 51.9007 59H15.1983C13.4297 59 12.0449 57.4778 12.2117 55.7171L15.2774 23.3548ZM17.8658 23C17.5563 23 17.2976 23.2353 17.2685 23.5434L14.2028 55.9057C14.1472 56.4926 14.6088 57 15.1983 57H51.9007L48.6799 23H17.8658Z" fill="black"/>
<path fill-rule="evenodd" clip-rule="evenodd" d="M26.9999 14C26.9999 9.02944 31.0294 5 35.9999 5C40.9705 5 44.9999 9.02944 44.9999 14V28C44.9999 28.5523 44.5522 29 43.9999 29C43.4476 29 42.9999 28.5523 42.9999 28V14C42.9999 10.134 39.8659 7 35.9999 7C32.1339 7 28.9999 10.134 28.9999 14V28C28.9999 28.5523 28.5522 29 27.9999 29C27.4476 29 26.9999 28.5523 26.9999 28V14Z" fill="black"/>
<path d="M15.7172 23.4745C15.7827 22.6421 16.4773 22 17.3123 22H44.3178C45.3615 22 46.2298 22.8026 46.3116 23.8431L48.8641 56.2745C48.9373 57.2047 48.2022 58 47.2691 58H15.1635C13.9971 58 13.0782 57.0059 13.1697 55.8431L15.7172 23.4745Z" fill="#00A970"/>
<path fill-rule="evenodd" clip-rule="evenodd" d="M14.7203 23.396C14.8268 22.0434 15.9555 21 17.3123 21H44.3178C45.8834 21 47.1857 22.2039 47.3086 23.7646L49.861 56.196C49.98 57.7077 48.7854 59 47.2691 59H15.1635C13.4139 59 12.0355 57.5089 12.1728 55.7646L14.7203 23.396ZM17.3123 23C16.9992 23 16.7387 23.2408 16.7141 23.5529L14.1666 55.9215C14.1208 56.503 14.5803 57 15.1635 57H47.2691C47.619 57 47.8947 56.7018 47.8672 56.3529L45.3147 23.9215C45.2738 23.4013 44.8397 23 44.3178 23H17.3123Z" fill="black"/>
<path fill-rule="evenodd" clip-rule="evenodd" d="M20.9999 14C20.9999 9.02944 25.0294 5 29.9999 5C34.9705 5 38.9999 9.02944 38.9999 14V28C38.9999 28.5523 38.5522 29 37.9999 29C37.4476 29 36.9999 28.5523 36.9999 28V14C36.9999 10.134 33.8659 7 29.9999 7C26.1339 7 22.9999 10.134 22.9999 14V28C22.9999 28.5523 22.5522 29 21.9999 29C21.4476 29 20.9999 28.5523 20.9999 28V14Z" fill="black"/>
<path d="M28 48C28 40.268 34.236 34 41.9286 34H44.0714C51.764 34 58 40.268 58 48C58 55.732 51.764 62 44.0714 62H41.9286C34.236 62 28 55.732 28 48Z" fill="black"/>
<path d="M28 48C28 40.268 34.268 34 42 34C49.732 34 56 40.268 56 48C56 55.732 49.732 62 42 62C34.268 62 28 55.732 28 48Z" fill="#00A970"/>
<path d="M32 48C32 42.4772 36.4772 38 42 38C47.5228 38 52 42.4772 52 48C52 53.5228 47.5228 58 42 58C36.4772 58 32 53.5228 32 48Z" fill="white"/>
<path fill-rule="evenodd" clip-rule="evenodd" d="M33.5556 48C33.5556 52.6637 37.3363 56.4444 42 56.4444C46.6637 56.4444 50.4444 52.6637 50.4444 48C50.4444 43.3363 46.6637 39.5556 42 39.5556C37.3363 39.5556 33.5556 43.3363 33.5556 48ZM42 38C36.4772 38 32 42.4772 32 48C32 53.5228 36.4772 58 42 58C47.5228 58 52 53.5228 52 48C52 42.4772 47.5228 38 42 38Z" fill="black"/>
<path d="M39.0445 52.7387H40.6174V48.558L39.0445 47.7488V52.7387Z" fill="black"/>
<path d="M43.6324 46.2457L41.3417 45.6628C40.8409 45.4844 40.6174 45.322 40.6174 44.751V43.046H39.0445V44.8043C39.0445 45.9449 39.2576 46.7848 40.9181 47.2214L43.2088 47.8043C43.2166 47.8057 43.2232 47.8083 43.231 47.8097C43.7161 47.9853 43.9331 48.1504 43.9331 48.7134V52.6864H45.506V48.6628C45.506 46.9006 44.7346 46.5266 43.6324 46.2457Z" fill="black"/>
<path fill-rule="evenodd" clip-rule="evenodd" d="M30.1538 48C30.1538 54.5425 35.4576 59.8462 42 59.8462C48.5425 59.8462 53.8462 54.5425 53.8462 48C53.8462 41.4576 48.5425 36.1538 42 36.1538C35.4576 36.1538 30.1538 41.4576 30.1538 48ZM42 34C34.268 34 28 40.268 28 48C28 55.732 34.268 62 42 62C49.732 62 56 55.732 56 48C56 40.268 49.732 34 42 34Z" fill="black"/>
<path fill-rule="evenodd" clip-rule="evenodd" d="M42 59.8462C35.4576 59.8462 30.1538 54.5425 30.1538 48C30.1538 41.4576 35.4576 36.1538 42 36.1538C48.5425 36.1538 53.8462 41.4576 53.8462 48C53.8462 54.5425 48.5425 59.8462 42 59.8462ZM28 48C28 40.268 34.268 34 42 34C49.732 34 56 40.268 56 48C56 55.732 49.732 62 42 62C34.268 62 28 55.732 28 48Z" fill="black"/>
</svg>
