<svg width="64" height="64" viewBox="0 0 64 64" fill="none" xmlns="http://www.w3.org/2000/svg">
<rect width="64" height="64" rx="16" fill="white"/>
<path d="M19 22.8C19 22.3582 19.3582 22 19.8 22H44.2C44.6418 22 45 22.3582 45 22.8V41.2C45 41.6418 44.6418 42 44.2 42H19.8C19.3582 42 19 41.6418 19 41.2V22.8Z" fill="black"/>
<path fill-rule="evenodd" clip-rule="evenodd" d="M18.5 22.8C18.5 22.082 19.082 21.5 19.8 21.5H44.2C44.918 21.5 45.5 22.082 45.5 22.8V41.2C45.5 41.918 44.918 42.5 44.2 42.5H19.8C19.082 42.5 18.5 41.918 18.5 41.2V22.8ZM19.8 22.5C19.6343 22.5 19.5 22.6343 19.5 22.8V41.2C19.5 41.3657 19.6343 41.5 19.8 41.5H44.2C44.3657 41.5 44.5 41.3657 44.5 41.2V22.8C44.5 22.6343 44.3657 22.5 44.2 22.5H19.8Z" fill="black"/>
<path d="M19 28.8C19 28.3582 19.3582 28 19.8 28H42.2C42.6418 28 43 28.3582 43 28.8V41.2C43 41.6418 42.6418 42 42.2 42H19.8C19.3582 42 19 41.6418 19 41.2V28.8Z" fill="#00A970"/>
<path fill-rule="evenodd" clip-rule="evenodd" d="M18.5 28.8C18.5 28.082 19.082 27.5 19.8 27.5H42.2C42.918 27.5 43.5 28.082 43.5 28.8V41.2C43.5 41.918 42.918 42.5 42.2 42.5H19.8C19.082 42.5 18.5 41.918 18.5 41.2V28.8ZM19.8 28.5C19.6343 28.5 19.5 28.6343 19.5 28.8V41.2C19.5 41.3657 19.6343 41.5 19.8 41.5H42.2C42.3657 41.5 42.5 41.3657 42.5 41.2V28.8C42.5 28.6343 42.3657 28.5 42.2 28.5H19.8Z" fill="black"/>
<path d="M19 25.8C19 25.3582 19.3582 25 19.8 25H42.2C42.6418 25 43 25.3582 43 25.8V38.2C43 38.6418 42.6418 39 42.2 39H19.8C19.3582 39 19 38.6418 19 38.2V25.8Z" fill="#00A970"/>
<path fill-rule="evenodd" clip-rule="evenodd" d="M18.5 25.8C18.5 25.082 19.082 24.5 19.8 24.5H42.2C42.918 24.5 43.5 25.082 43.5 25.8V38.2C43.5 38.918 42.918 39.5 42.2 39.5H19.8C19.082 39.5 18.5 38.918 18.5 38.2V25.8ZM19.8 25.5C19.6343 25.5 19.5 25.6343 19.5 25.8V38.2C19.5 38.3657 19.6343 38.5 19.8 38.5H42.2C42.3657 38.5 42.5 38.3657 42.5 38.2V25.8C42.5 25.6343 42.3657 25.5 42.2 25.5H19.8Z" fill="black"/>
<path d="M19 22.8C19 22.3582 19.3582 22 19.8 22H42.2C42.6418 22 43 22.3582 43 22.8V35.2C43 35.6418 42.6418 36 42.2 36H19.8C19.3582 36 19 35.6418 19 35.2V22.8Z" fill="#00A970"/>
<path fill-rule="evenodd" clip-rule="evenodd" d="M18.5 22.8C18.5 22.082 19.082 21.5 19.8 21.5H42.2C42.918 21.5 43.5 22.082 43.5 22.8V35.2C43.5 35.918 42.918 36.5 42.2 36.5H19.8C19.082 36.5 18.5 35.918 18.5 35.2V22.8ZM19.8 22.5C19.6343 22.5 19.5 22.6343 19.5 22.8V35.2C19.5 35.3657 19.6343 35.5 19.8 35.5H42.2C42.3657 35.5 42.5 35.3657 42.5 35.2V22.8C42.5 22.6343 42.3657 22.5 42.2 22.5H19.8Z" fill="black"/>
<path d="M38.0026 22L42.1253 22C42.6085 22 43.0003 22.3917 43.0003 22.875V27C40.2399 26.9987 38.0026 24.7606 38.0026 22Z" fill="white"/>
<path fill-rule="evenodd" clip-rule="evenodd" d="M37.5026 21.5L42.1253 21.5C42.8847 21.5 43.5003 22.1156 43.5003 22.875V27.5002L43.0001 27.5C39.9636 27.4986 37.5026 25.0367 37.5026 22V21.5ZM38.53 22.5C38.7605 24.585 40.4156 26.2407 42.5003 26.4723V22.875C42.5003 22.6679 42.3324 22.5 42.1253 22.5L38.53 22.5Z" fill="black"/>
<path d="M24.0013 22L19.8763 22C19.393 22 19.0013 22.3917 19.0013 22.875L19.0013 27C21.7627 27 24.0013 24.7614 24.0013 22Z" fill="white"/>
<path fill-rule="evenodd" clip-rule="evenodd" d="M19.8763 22.5C19.6692 22.5 19.5013 22.6679 19.5013 22.875L19.5013 26.4725C21.5871 26.2419 23.2432 24.5858 23.4738 22.5L19.8763 22.5L19.8763 22L19.8763 22.5ZM18.5013 22.875C18.5013 22.1156 19.1169 21.5 19.8763 21.5L24.5013 21.5V22C24.5013 25.0375 22.0388 27.5 19.0013 27.5H18.5013L18.5013 22.875Z" fill="black"/>
<path d="M24.0026 36C24.0026 33.2385 21.764 31 19.0026 31L19.0006 31L19.0006 35.125C19.0006 35.6082 19.3924 36 19.8756 36L24.0026 36Z" fill="white"/>
<path fill-rule="evenodd" clip-rule="evenodd" d="M18.5006 30.5L19.0026 30.5C22.0401 30.5 24.5026 32.9624 24.5026 36V36.5L19.8756 36.5C19.1162 36.5 18.5006 35.8844 18.5006 35.125L18.5006 30.5ZM19.5006 31.5272L19.5006 35.125C19.5006 35.3321 19.6685 35.5 19.8756 35.5L23.4751 35.5C23.2445 33.4135 21.5873 31.757 19.5006 31.5272Z" fill="black"/>
<path d="M43.0025 31L43.0025 35.125C43.0025 35.6082 42.6108 36 42.1275 36L38.0024 36C38.0024 33.2385 40.241 31 43.0025 31Z" fill="white"/>
<path fill-rule="evenodd" clip-rule="evenodd" d="M38.5298 35.5L42.1275 35.5C42.3347 35.5 42.5025 35.3321 42.5025 35.125L42.5025 31.5274C40.4166 31.758 38.7604 33.4142 38.5298 35.5ZM37.5024 36C37.5024 32.9624 39.9649 30.5 43.0025 30.5L43.5025 30.5L43.5025 35.125C43.5025 35.8844 42.8869 36.5 42.1275 36.5L37.5024 36.5V36Z" fill="black"/>
<path d="M26.4993 29C26.4993 26.5147 28.514 24.5 30.9993 24.5C33.4846 24.5 35.4993 26.5147 35.4993 29C35.4993 31.4853 33.4846 33.5 30.9993 33.5C28.514 33.5 26.4993 31.4853 26.4993 29Z" fill="white"/>
<path fill-rule="evenodd" clip-rule="evenodd" d="M26.0993 29C26.0993 26.2938 28.2931 24.1 30.9993 24.1C33.7055 24.1 35.8993 26.2938 35.8993 29C35.8993 31.7062 33.7055 33.9 30.9993 33.9C28.2931 33.9 26.0993 31.7062 26.0993 29ZM30.9993 24.9C28.7349 24.9 26.8993 26.7356 26.8993 29C26.8993 31.2643 28.7349 33.1 30.9993 33.1C33.2637 33.1 35.0993 31.2643 35.0993 29C35.0993 26.7356 33.2637 24.9 30.9993 24.9Z" fill="black"/>
<path d="M29.5013 31.2826H30.2996V29.2197L29.5013 28.8201V31.2826Z" fill="black"/>
<path d="M31.829 28.0788L30.6668 27.7912C30.4123 27.7029 30.299 27.6224 30.299 27.3415V26.5H29.4993V27.3679C29.4993 27.9311 29.6073 28.3452 30.4496 28.5549L31.6131 28.8425H31.6237C31.8703 28.9282 31.9809 29.01 31.9809 29.2883V31.2602H32.7806V29.2711C32.7806 28.4019 32.3901 28.216 31.8303 28.0841" fill="black"/>
</svg>
