<svg width="24" height="24" viewBox="0 0 24 24" fill="none" xmlns="http://www.w3.org/2000/svg">
<path d="M14.0497 14.4868C12.9497 13.618 11.895 12.894 11.9649 11.2201C11.9705 11.0856 11.8334 10.9862 11.7135 11.0472C8.76142 12.5476 9.64137 15.5616 10.3696 17.0958C10.4188 17.1996 10.3579 17.3228 10.2436 17.3344C9.19769 17.4405 8.53537 16.7199 8.39976 15.8838C8.37073 15.7049 8.10204 15.6064 8.00984 15.7626C6.21968 18.7938 9.68562 21.4437 11.6635 21.7429C11.837 21.7353 12.0986 21.7561 12.314 21.7353C15.6776 21.4107 15.7855 18.0569 15.7855 17.8406C15.7855 17.6242 15.9825 16.0133 14.0497 14.4868Z" fill="black"/>
<path fill-rule="evenodd" clip-rule="evenodd" d="M11.5436 10.7129C11.9542 10.5042 12.3555 10.855 12.3396 11.2357C12.2819 12.6192 13.0682 13.2376 14.1214 14.0658C14.1743 14.1075 14.228 14.1497 14.2822 14.1925C15.308 15.0027 15.7858 15.8509 16.0006 16.544C16.1073 16.8881 16.1474 17.1882 16.1605 17.4185C16.1671 17.5337 16.1669 17.6308 16.1651 17.7059C16.1642 17.743 16.163 17.7749 16.162 17.7989L16.162 17.7992L16.1608 17.8287L16.1606 17.8375C16.1605 17.8397 16.1605 17.8406 16.1605 17.8406C16.1605 17.9766 16.1308 18.9344 15.6474 19.9134C15.1532 20.9141 14.1834 21.9317 12.35 22.1086C12.2198 22.1211 12.0824 22.1207 11.9676 22.119C11.9399 22.1186 11.9139 22.1181 11.8893 22.1177C11.8035 22.1162 11.7362 22.1151 11.6799 22.1175L11.6435 22.1191L11.6074 22.1137C10.5191 21.949 9.07774 21.1593 8.13442 20.0159C7.65787 19.4382 7.29348 18.7525 7.17672 17.9905C7.05898 17.2221 7.1973 16.4011 7.68698 15.5719C7.85527 15.2869 8.16588 15.2814 8.34718 15.3418C8.52646 15.4016 8.72772 15.5634 8.76996 15.8238C8.86577 16.4145 9.26594 16.8971 9.89744 16.9622C9.56152 16.1842 9.23166 15.1197 9.28695 14.0397C9.3512 12.7847 9.9376 11.5292 11.5436 10.7129ZM11.5903 11.5437C10.471 12.2188 10.0838 13.1446 10.036 14.078C9.98262 15.1201 10.355 16.1905 10.7084 16.935C10.8549 17.2438 10.6849 17.6666 10.2815 17.7075C9.17504 17.8198 8.42135 17.1629 8.13205 16.3446C7.89605 16.8863 7.84501 17.4001 7.91807 17.8769C8.0095 18.4737 8.29957 19.0375 8.71296 19.5386C9.53933 20.5403 10.7989 21.2208 11.6869 21.3669C11.7596 21.3652 11.8413 21.3667 11.9165 21.368C11.9378 21.3684 11.9586 21.3688 11.9785 21.3691C12.0918 21.3707 12.1928 21.3703 12.278 21.362C13.8082 21.2144 14.5742 20.3927 14.9749 19.5813C15.3863 18.7482 15.4105 17.9209 15.4105 17.8406C15.4105 17.8223 15.4114 17.7992 15.4124 17.7714C15.4189 17.598 15.4321 17.2431 15.2843 16.766C15.1144 16.2179 14.7243 15.4974 13.8174 14.7811C13.751 14.7287 13.684 14.6763 13.6167 14.6237C12.6681 13.8821 11.6587 13.093 11.5903 11.5437Z" fill="black"/>
<path d="M13.4058 14.4867C12.0081 13.3294 11.8379 11.8532 11.9613 11.0931C11.973 11.021 11.8978 10.9616 11.832 10.9932C8.7431 12.474 9.24997 15.5419 9.95174 17.095C9.99899 17.1996 9.93779 17.3233 9.82337 17.3322C8.6928 17.4203 8.41316 16.2453 8.4138 15.4207C8.41387 15.3347 8.30168 15.2944 8.25108 15.3638C5.89546 18.5978 8.50031 21.9997 11.6735 21.7354C14.9214 21.4649 15.138 18.057 15.138 17.8406C15.138 17.6242 15.3004 16.0555 13.4058 14.4867Z" fill="#EA3654"/>
<path fill-rule="evenodd" clip-rule="evenodd" d="M11.6698 10.655C12.0275 10.4836 12.3884 10.8028 12.3315 11.1532C12.2256 11.8049 12.3663 13.1393 13.6449 14.1979C14.647 15.0277 15.1213 15.8726 15.3396 16.5569C15.5348 17.169 15.5192 17.6417 15.514 17.7994C15.5134 17.8173 15.5129 17.8311 15.5129 17.8406C15.5129 17.9879 15.4526 18.9563 14.9585 19.9365C14.4544 20.9368 13.488 21.9606 11.7046 22.1091C9.97563 22.2531 8.39647 21.3988 7.56977 20.0583C6.73326 18.7019 6.68414 16.8781 7.94793 15.1431C8.08629 14.9531 8.31184 14.9223 8.4764 14.9804C8.63849 15.0377 8.78894 15.1966 8.78877 15.421C8.78847 15.8033 8.85506 16.2313 9.02331 16.5387C9.10484 16.6877 9.20341 16.7961 9.31838 16.8648C9.36434 16.8923 9.41686 16.9158 9.4776 16.9328C9.16805 16.1307 8.93648 15.0497 9.09947 13.9614C9.28868 12.6981 10.008 11.4517 11.6698 10.655L11.832 10.9932L11.6698 10.655ZM11.5538 11.569C10.4464 12.2415 9.97838 13.1566 9.8412 14.0725C9.68343 15.1259 9.96182 16.2067 10.2934 16.9406C10.4292 17.2412 10.2691 17.6736 9.85247 17.7061C9.50061 17.7335 9.19229 17.6631 8.9337 17.5086C8.67829 17.356 8.49501 17.1356 8.36539 16.8988C8.25823 16.703 8.1833 16.488 8.1325 16.2717C7.49942 17.5318 7.64052 18.7442 8.20814 19.6646C8.88827 20.7675 10.1981 21.482 11.6424 21.3617C13.1069 21.2398 13.8728 20.4244 14.2888 19.599C14.4998 19.1804 14.6193 18.7597 14.6857 18.4287C14.7187 18.2638 14.7382 18.1233 14.7494 18.019C14.755 17.967 14.7585 17.9244 14.7605 17.8929C14.7615 17.8772 14.7621 17.8646 14.7625 17.8552L14.7629 17.8442C14.7629 17.8414 14.7629 17.8403 14.7629 17.8406C14.7629 17.8259 14.7635 17.8073 14.7641 17.7852C14.7688 17.6231 14.7791 17.2679 14.625 16.7848C14.4508 16.2384 14.059 15.5146 13.1666 14.7756C11.923 13.746 11.5648 12.4729 11.5538 11.569Z" fill="black"/>
<path d="M8.71233 10.191C8.51975 11.8108 7.15961 13.0833 5.49965 13.0833C3.83969 13.0833 2.47955 11.8119 2.28806 10.191C1.95541 7.39236 3.87361 4.3716 5.50074 2.25C7.12787 4.37051 9.04389 7.39127 8.71233 10.191Z" fill="#01B2EA"/>
<path fill-rule="evenodd" clip-rule="evenodd" d="M5.50065 1.875C5.61725 1.87499 5.72722 1.92921 5.7982 2.02171C6.61905 3.09146 7.5232 4.40136 8.18067 5.80691C8.83671 7.20939 9.26194 8.73829 9.08468 10.2351L9.08466 10.2353C8.87064 12.0354 7.35785 13.4583 5.4996 13.4583C3.64159 13.4583 2.12858 12.0367 1.91563 10.2353C1.73776 8.73882 2.16336 7.21008 2.8198 5.80764C3.47768 4.40212 4.38237 3.09197 5.20313 2.02179C5.27409 1.92927 5.38405 1.87501 5.50065 1.875ZM5.50075 2.87238C4.7836 3.83861 4.04763 4.95362 3.49907 6.12559C2.87279 7.4636 2.50561 8.84458 2.66039 10.1468L2.66042 10.147C2.83057 11.5872 4.03779 12.7083 5.4996 12.7083C6.96121 12.7083 8.16866 11.5864 8.33989 10.1469M5.50075 2.87238C6.21771 3.83808 6.95315 4.9528 7.50132 6.12469C8.12716 7.4626 8.49415 8.8439 8.33991 10.1468" fill="black"/>
<path fill-rule="evenodd" clip-rule="evenodd" d="M3.96421 8.64532C4.16005 8.7127 4.26419 8.92608 4.19681 9.12192C4.10231 9.39659 4.08706 9.75865 4.23767 10.1018C4.38422 10.4357 4.70499 10.7908 5.35518 11.0316C5.54939 11.1035 5.64852 11.3193 5.57659 11.5135C5.50466 11.7077 5.28891 11.8068 5.09469 11.7349C4.28239 11.4341 3.79067 10.9495 3.5509 10.4032C3.31521 9.86619 3.33984 9.30742 3.48761 8.87792C3.55499 8.68208 3.76837 8.57794 3.96421 8.64532Z" fill="black"/>
<path d="M17.1408 2.42413H20.7411C20.8173 2.42413 20.8686 2.50227 20.8383 2.57225L18.9643 6.89693C18.9036 7.03689 19.0062 7.19316 19.1588 7.19316H21.5174C21.6084 7.19316 21.6571 7.3002 21.5973 7.36877L16.0552 13.7286C15.9001 13.9065 15.614 13.7359 15.6969 13.5149L17.4575 8.82005C17.4835 8.75077 17.4323 8.67686 17.3583 8.67686H15.8838C15.5313 8.67686 15.277 8.33902 15.3746 8.00026L16.9371 2.57741C16.9633 2.48664 17.0463 2.42413 17.1408 2.42413Z" fill="black"/>
<path fill-rule="evenodd" clip-rule="evenodd" d="M16.5768 2.47358C16.6492 2.22223 16.8792 2.04913 17.1408 2.04913H20.7411C21.0872 2.04913 21.32 2.40375 21.1824 2.72135L19.4071 6.81816H21.5174C21.9302 6.81816 22.1512 7.30394 21.88 7.61513L16.3379 13.9749C15.9084 14.4678 15.1163 13.9953 15.3458 13.3832L16.9701 9.05186H15.8838C15.2817 9.05186 14.8476 8.47493 15.0143 7.89643L16.5768 2.47358ZM17.2635 2.79913L15.7349 8.10408C15.7064 8.20311 15.7807 8.30186 15.8838 8.30186H17.3583C17.6941 8.30186 17.9265 8.63728 17.8086 8.95172L16.3644 12.8029L20.9261 7.56816H19.1588C18.7364 7.56816 18.4522 7.1354 18.6202 6.74783L20.3313 2.79913H17.2635ZM15.7725 13.4822C15.7725 13.4822 15.7725 13.4821 15.7726 13.4821L15.7725 13.4822Z" fill="black"/>
<path d="M16.3987 2.42413H19.999C20.0753 2.42413 20.1266 2.50227 20.0963 2.57225L18.2222 6.89693C18.1616 7.03689 18.2642 7.19316 18.4167 7.19316H20.8967C20.9851 7.19316 21.0346 7.29489 20.9802 7.36446L15.9868 13.7449C15.8467 13.9239 15.5613 13.7867 15.6136 13.5655L16.7383 8.80722C16.754 8.74067 16.7036 8.67686 16.6352 8.67686H15.1417C14.7892 8.67686 14.5349 8.33902 14.6326 8.00026L16.1951 2.57741C16.2212 2.48664 16.3043 2.42413 16.3987 2.42413Z" fill="#FFC300"/>
<path fill-rule="evenodd" clip-rule="evenodd" d="M15.8347 2.47358C15.9071 2.22223 16.1371 2.04913 16.3987 2.04913H19.999C20.3451 2.04913 20.5779 2.40376 20.4403 2.72135L20.0972 2.57266L20.4403 2.72135L18.665 6.81816H20.8967C21.2976 6.81816 21.5226 7.27985 21.2755 7.59557L20.9802 7.36446L21.2755 7.59557L16.2821 13.976C15.8941 14.4717 15.1039 14.0919 15.2487 13.4792L16.2951 9.05186H15.1417C14.5397 9.05186 14.1055 8.47493 14.2722 7.89643L15.8347 2.47358ZM16.5214 2.79913L14.9929 8.10408C14.9643 8.2031 15.0387 8.30186 15.1417 8.30186H16.6352C16.9455 8.30186 17.1746 8.59144 17.1032 8.89348L16.1495 12.9285L20.3446 7.56816H18.4167C17.9943 7.56816 17.7102 7.1354 17.8781 6.74783L19.5892 2.79913H16.5214Z" fill="black"/>
</svg>
