<svg width="40" height="41" viewBox="0 0 40 41" fill="none" xmlns="http://www.w3.org/2000/svg">
<rect y="0.5" width="40" height="40" rx="8" fill="#F9FAFC"/>
<path d="M29.5459 15.4379L27.4387 11.998C27.2504 11.6893 26.9159 11.5 26.5588 11.5H13.4412C13.0841 11.5 12.7496 11.6893 12.5613 11.998L10.4541 15.4379C9.49297 17.0051 10.1294 19.1102 11.6879 19.7809V27.3312C11.6879 27.9754 12.1522 28.5 12.7269 28.5H27.2731C27.8478 28.5 28.3121 27.9754 28.3121 27.3312V19.7809C29.8706 19.1102 30.507 17.0051 29.5459 15.4379ZM26.7536 26.9062H13.2464V23.7188H26.7536V26.9062ZM26.7471 22.1184H13.2464V19.9701C14.0257 19.8605 14.7108 19.4654 15.2043 18.901C15.7887 19.5684 16.6427 20 17.6005 20C18.5616 20 19.4123 19.5684 19.9968 18.901C20.5812 19.5684 21.4351 20 22.393 20C23.3541 20 24.2048 19.5684 24.7892 18.901C25.286 19.4654 25.9678 19.8605 26.7471 19.9701V22.1184ZM28.3024 17.7023C28.1985 17.9281 27.9485 18.3199 27.4257 18.393C27.3478 18.4029 27.2698 18.4096 27.1919 18.4096C26.7146 18.4096 26.2763 18.207 25.9548 17.8385L24.7957 16.5137L23.6365 17.8352C23.3151 18.2037 22.8735 18.4062 22.3995 18.4062C21.9254 18.4062 21.4838 18.2037 21.1624 17.8352L20 16.5137L18.8409 17.8352C18.5194 18.2037 18.0778 18.4062 17.6038 18.4062C17.1265 18.4062 16.6881 18.2037 16.3667 17.8352L15.2043 16.5137L14.0452 17.8352C13.7237 18.2037 13.2821 18.4062 12.8081 18.4062C12.7269 18.4062 12.649 18.3996 12.5743 18.3896C12.0548 18.3166 11.8015 17.9281 11.6976 17.699C11.5353 17.3404 11.4671 16.7826 11.7723 16.2846L13.727 13.0937H26.2698L28.2244 16.2846C28.5329 16.7859 28.468 17.3438 28.3024 17.7023Z" fill="#00A970"/>
</svg>
