<svg width="14" height="14" viewBox="0 0 14 14" fill="none" xmlns="http://www.w3.org/2000/svg">
<path d="M7 10.3333C6.63181 10.3333 6.33333 10.0349 6.33333 9.66668V6.33334C6.33333 5.96515 6.63181 5.66668 7 5.66668C7.36819 5.66668 7.66667 5.96515 7.66667 6.33334V9.66668C7.66667 10.0349 7.36819 10.3333 7 10.3333Z" fill="#00A970"/>
<path d="M7 3.66668C6.63181 3.66668 6.33333 3.96515 6.33333 4.33334C6.33333 4.70153 6.63181 5.00001 7 5.00001C7.36819 5.00001 7.66667 4.70153 7.66667 4.33334C7.66667 3.96515 7.36819 3.66668 7 3.66668Z" fill="#00A970"/>
<path fill-rule="evenodd" clip-rule="evenodd" d="M13.6667 7.00001C13.6667 3.31811 10.6819 0.333344 7 0.333344C3.3181 0.333343 0.333332 3.31811 0.333332 7.00001C0.333332 10.6819 3.3181 13.6667 7 13.6667C10.6819 13.6667 13.6667 10.6819 13.6667 7.00001ZM1.66667 7.00001C1.66667 4.05449 4.05448 1.66668 7 1.66668C9.94552 1.66668 12.3333 4.05449 12.3333 7.00001C12.3333 9.94553 9.94552 12.3333 7 12.3333C4.05448 12.3333 1.66667 9.94553 1.66667 7.00001Z" fill="#00A970"/>
</svg>
