<svg width="81" height="80" viewBox="0 0 81 80" fill="none" xmlns="http://www.w3.org/2000/svg">
<path d="M72.5 40.0001C72.5 57.6732 58.1731 72.0001 40.5 72.0001C22.8269 72.0001 8.5 57.6732 8.5 40.0001C8.5 22.327 22.8269 8.00012 40.5 8.00012C58.1731 8.00012 72.5 22.327 72.5 40.0001Z" fill="#00A970"/>
<path fill-rule="evenodd" clip-rule="evenodd" d="M40.5 69.5001C56.7924 69.5001 70 56.2925 70 40.0001C70 23.7077 56.7924 10.5001 40.5 10.5001C24.2076 10.5001 11 23.7077 11 40.0001C11 56.2925 24.2076 69.5001 40.5 69.5001ZM40.5 72.0001C58.1731 72.0001 72.5 57.6732 72.5 40.0001C72.5 22.327 58.1731 8.00012 40.5 8.00012C22.8269 8.00012 8.5 22.327 8.5 40.0001C8.5 57.6732 22.8269 72.0001 40.5 72.0001Z" fill="black"/>
<path fill-rule="evenodd" clip-rule="evenodd" d="M29.8976 36.5951C29.3309 36.0231 28.4121 36.0231 27.8455 36.5951L24.4253 40.0473C23.8586 40.6193 23.8586 41.5467 24.4253 42.1187L34.0018 51.7849C34.9463 52.7382 36.4776 52.7382 37.4221 51.7849L56.5752 32.4524C57.1419 31.8804 57.1419 30.9531 56.5752 30.3811L53.155 26.9289C52.5883 26.3569 51.6696 26.3569 51.1029 26.9289L36.054 42.1187C35.8651 42.3093 35.5588 42.3093 35.3699 42.1187L29.8976 36.5951Z" fill="white"/>
<path fill-rule="evenodd" clip-rule="evenodd" d="M50.2149 26.0491C51.2707 24.9835 52.9873 24.9835 54.043 26.0491L57.4632 29.5013C58.5126 30.5605 58.5126 32.273 57.4632 33.3322L38.31 52.6647C36.8765 54.1116 34.5474 54.1116 33.1139 52.6647L23.5373 42.9984C22.4879 41.9392 22.4879 40.2268 23.5373 39.1676L26.9575 35.7153C28.0132 34.6497 29.7298 34.6497 30.7856 35.7153L35.7119 40.6878L50.2149 26.0491ZM52.267 27.8086C52.1894 27.7303 52.0685 27.7303 51.9909 27.8086L36.942 42.9984C36.264 43.6827 35.1599 43.6827 34.4819 42.9984L29.0096 37.4749C28.932 37.3965 28.8111 37.3965 28.7335 37.4749L25.3132 40.9271C25.2292 41.0119 25.2292 41.1541 25.3132 41.2389L34.8898 50.9051C35.3452 51.3648 36.0787 51.3648 36.5341 50.9051L55.6872 31.5727C55.7712 31.4879 55.7712 31.3456 55.6872 31.2608L52.267 27.8086Z" fill="black"/>
</svg>
