<svg width="40" height="40" viewBox="0 0 40 40" fill="none" xmlns="http://www.w3.org/2000/svg">
<rect width="40" height="40" rx="8" fill="#F9FAFC"/>
<path fill-rule="evenodd" clip-rule="evenodd" d="M13.2143 13.4286C12.2281 13.4286 11.4286 14.2281 11.4286 15.2143V24.5C11.4286 25.4862 12.2281 26.2857 13.2143 26.2857H26.7857C27.7719 26.2857 28.5714 25.4862 28.5714 24.5V15.2143C28.5714 14.2281 27.7719 13.4286 26.7857 13.4286H13.2143ZM10 15.2143C10 13.4391 11.4391 12 13.2143 12H26.7857C28.5609 12 30 13.4391 30 15.2143V24.5C30 26.2752 28.5609 27.7143 26.7857 27.7143H13.2143C11.4391 27.7143 10 26.2752 10 24.5V15.2143Z" fill="#00A970"/>
<path fill-rule="evenodd" clip-rule="evenodd" d="M29.2857 17.3393H20H10.7143V15.6607H20H29.2857V17.3393Z" fill="#00A970"/>
<path fill-rule="evenodd" clip-rule="evenodd" d="M27 23.5C27 23.7761 26.7761 24 26.5 24H20H13.5C13.2239 24 13 23.7761 13 23.5C13 23.2239 13.2239 23 13.5 23H20H26.5C26.7761 23 27 23.2239 27 23.5Z" fill="#00A970"/>
</svg>
