<svg width="24" height="24" viewBox="0 0 24 24" fill="none" xmlns="http://www.w3.org/2000/svg">
<path d="M20.1588 4.77418H3.84117C2.78436 4.77418 1.95 5.63252 1.95 6.66535V17.3346C1.95 18.3914 2.80834 19.2258 3.84117 19.2258H20.1588C21.2157 19.2258 22.05 18.3674 22.05 17.3346V6.66535C22.05 5.6085 21.1917 4.77418 20.1588 4.77418ZM20.7781 17.3346C20.7781 17.6764 20.5013 17.9539 20.1588 17.9539H3.84117C3.49937 17.9539 3.22188 17.6771 3.22188 17.3346V6.66535C3.22188 6.32355 3.49867 6.04606 3.84117 6.04606H20.1588C20.5006 6.04606 20.7781 6.32285 20.7781 6.66535V17.3346Z" fill="#00A970" stroke="#00A970" stroke-width="0.1"/>
<path d="M11.3807 15.0794C11.3807 13.963 10.7962 12.9808 9.91761 12.4223C10.2427 12.0381 10.4393 11.5416 10.4393 11C10.4393 9.78413 9.45023 8.79502 8.23437 8.79502C7.01851 8.79502 6.02945 9.78413 6.02945 11C6.02945 11.5416 6.22604 12.0381 6.55113 12.4222C5.67247 12.9807 5.088 13.963 5.088 15.0794C5.088 15.4306 5.37273 15.7153 5.72394 15.7153H10.7448C11.096 15.7153 11.3807 15.4306 11.3807 15.0794ZM8.23437 10.0669C8.74883 10.0669 9.16746 10.4855 9.16746 11C9.16746 11.5144 8.74883 11.9331 8.23437 11.9331C7.71992 11.9331 7.30132 11.5144 7.30132 11C7.30132 10.4855 7.71992 10.0669 8.23437 10.0669ZM9.99783 14.4435H6.47091C6.73195 13.7219 7.42405 13.205 8.23437 13.205C9.04469 13.205 9.73675 13.7219 9.99783 14.4435Z" fill="#00A970" stroke="#00A970" stroke-width="0.1"/>
<path d="M18.2761 10.4227H13.8828C13.5316 10.4227 13.2469 10.7074 13.2469 11.0586C13.2469 11.4098 13.5316 11.6946 13.8828 11.6946H18.2761C18.6273 11.6946 18.912 11.4098 18.912 11.0586C18.912 10.7074 18.6273 10.4227 18.2761 10.4227Z" fill="#00A970" stroke="#00A970" stroke-width="0.1"/>
<path d="M18.2761 12.933H13.8828C13.5316 12.933 13.2469 13.2178 13.2469 13.569C13.2469 13.9202 13.5316 14.2049 13.8828 14.2049H18.2761C18.6273 14.2049 18.912 13.9202 18.912 13.569C18.912 13.2178 18.6273 12.933 18.2761 12.933Z" fill="#00A970" stroke="#00A970" stroke-width="0.1"/>
</svg>
