<svg width="24" height="24" viewBox="0 0 24 24" fill="none" xmlns="http://www.w3.org/2000/svg">
<path fill-rule="evenodd" clip-rule="evenodd" d="M2 12C2 17.5228 6.47715 22 12 22C17.5228 22 22 17.5228 22 12C22 6.47715 17.5228 2 12 2C6.47715 2 2 6.47715 2 12ZM16.054 18.8982C14.8652 19.5984 13.4795 20 12 20C10.5052 20 9.10621 19.59 7.90924 18.8764C8.27404 18.4677 8.735 18.1399 9.26683 17.9304C9.78066 17.7279 10.0331 17.1472 9.83057 16.6334C9.6281 16.1195 9.04741 15.8672 8.53358 16.0696C7.66174 16.4132 6.91207 16.9605 6.33043 17.6441C4.89019 16.1974 4 14.2027 4 12C4 7.58172 7.58172 4 12 4C16.4183 4 20 7.58172 20 12C20 14.2176 19.0977 16.2245 17.6402 17.6735C17.0381 16.9699 16.2603 16.41 15.356 16.0655C14.8399 15.8689 14.2621 16.1279 14.0655 16.644C13.8689 17.1601 14.1279 17.7379 14.644 17.9345C15.1958 18.1447 15.6747 18.4789 16.054 18.8982ZM12 6C14.2091 6 16 7.79086 16 10V12C16 14.2091 14.2091 16 12 16C9.79086 16 8 14.2091 8 12V10C8 7.79086 9.79086 6 12 6ZM10 10C10 8.89543 10.8954 8 12 8C13.1046 8 14 8.89543 14 10V12C14 13.1046 13.1046 14 12 14C10.8954 14 10 13.1046 10 12V10Z" fill="#00A970"/>
</svg>
