<svg width="40" height="40" viewBox="0 0 40 40" fill="none" xmlns="http://www.w3.org/2000/svg">
<path d="M0 8C0 3.58172 3.58172 0 8 0H32C36.4183 0 40 3.58172 40 8V32C40 36.4183 36.4183 40 32 40H8C3.58172 40 0 36.4183 0 32V8Z" fill="#F9FAFC"/>
<path fill-rule="evenodd" clip-rule="evenodd" d="M10 20C10 25.5228 14.4772 30 20 30C25.5228 30 30 25.5228 30 20C30 14.4772 25.5228 10 20 10C14.4772 10 10 14.4772 10 20ZM24.054 26.8982C22.8652 27.5984 21.4795 28 20 28C18.5052 28 17.1062 27.59 15.9092 26.8764C16.274 26.4677 16.735 26.1399 17.2668 25.9304C17.7807 25.7279 18.0331 25.1472 17.8306 24.6334C17.6281 24.1195 17.0474 23.8672 16.5336 24.0696C15.6617 24.4132 14.9121 24.9605 14.3304 25.6441C12.8902 24.1974 12 22.2027 12 20C12 15.5817 15.5817 12 20 12C24.4183 12 28 15.5817 28 20C28 22.2176 27.0977 24.2245 25.6402 25.6735C25.0381 24.9699 24.2603 24.41 23.356 24.0655C22.8399 23.8689 22.2621 24.1279 22.0655 24.644C21.8689 25.1601 22.1279 25.7379 22.644 25.9345C23.1958 26.1447 23.6747 26.4789 24.054 26.8982ZM20 14C22.2091 14 24 15.7909 24 18V20C24 22.2091 22.2091 24 20 24C17.7909 24 16 22.2091 16 20V18C16 15.7909 17.7909 14 20 14ZM18 18C18 16.8954 18.8954 16 20 16C21.1046 16 22 16.8954 22 18V20C22 21.1046 21.1046 22 20 22C18.8954 22 18 21.1046 18 20V18Z" fill="#00A970"/>
</svg>
