<svg width="24" height="24" viewBox="0 0 24 24" fill="none" xmlns="http://www.w3.org/2000/svg">
<path d="M20.1065 3.26972C20.1784 3.07553 20.4186 2.9622 20.6538 3.01152C20.891 3.06125 21.0395 3.25876 20.9908 3.4597L18.5901 13.3584C18.5669 13.4539 18.4561 13.5156 18.3422 13.4965L16.6695 13.216C16.5469 13.1954 16.4725 13.0904 16.5096 12.9902L20.1065 3.26972Z" fill="black"/>
<path fill-rule="evenodd" clip-rule="evenodd" d="M20.001 3.23068C20.0965 2.97277 20.4 2.84335 20.6769 2.90141C20.9584 2.96043 21.1678 3.20716 21.1001 3.48621L18.6994 13.3849C18.6589 13.552 18.4799 13.6337 18.3236 13.6075L16.6509 13.3269C16.4807 13.2984 16.3353 13.1369 16.4041 12.9512L20.001 3.23068ZM20.6307 3.12162C20.4372 3.08104 20.2603 3.17828 20.212 3.30876L16.6151 13.0293C16.6106 13.0414 16.6117 13.0541 16.6215 13.0679C16.632 13.0827 16.6538 13.0993 16.6882 13.105L18.3608 13.3856C18.4323 13.3976 18.475 13.3557 18.4808 13.3319L20.8814 3.43318C20.9112 3.31036 20.8236 3.16207 20.6307 3.12162Z" fill="black"/>
<path d="M3.89347 3.26991C3.8216 3.07571 3.58142 2.96239 3.34621 3.0117C3.10901 3.06143 2.96051 3.25894 3.00925 3.45989L5.4099 13.3586C5.43305 13.4541 5.54391 13.5158 5.65781 13.4967L7.33046 13.2162C7.45307 13.1956 7.52751 13.0906 7.49045 12.9904L3.89347 3.26991Z" fill="white"/>
<path fill-rule="evenodd" clip-rule="evenodd" d="M4.24515 3.13977C4.09471 2.7332 3.64344 2.56623 3.26925 2.64468C2.88443 2.72537 2.53293 3.08695 2.64481 3.54827L5.04546 13.447C5.12655 13.7813 5.4645 13.9094 5.71983 13.8666L7.39249 13.586C7.67382 13.5388 7.98474 13.2456 7.84214 12.8603L4.24515 3.13977ZM3.54298 3.40332L7.05079 12.8828L5.73395 13.1037L3.37965 3.39614C3.38776 3.39047 3.40158 3.38324 3.42316 3.37872C3.46038 3.37092 3.49606 3.37683 3.52107 3.38863C3.53492 3.39517 3.54096 3.40099 3.54298 3.40332Z" fill="black"/>
<path d="M5.25 17.7773C5.25 17.6932 5.31821 17.625 5.40234 17.625H7.34766C7.43179 17.625 7.5 17.6932 7.5 17.7773V19.3477C7.5 19.4318 7.43179 19.5 7.34766 19.5H5.40234C5.31821 19.5 5.25 19.4318 5.25 19.3477V17.7773Z" fill="white"/>
<path fill-rule="evenodd" clip-rule="evenodd" d="M4.95001 17.7773C4.95001 17.5275 5.15253 17.325 5.40236 17.325H7.34767C7.59749 17.325 7.80001 17.5275 7.80001 17.7773V19.3477C7.80001 19.5975 7.59749 19.8 7.34767 19.8H5.40236C5.15253 19.8 4.95001 19.5975 4.95001 19.3477V17.7773ZM5.55001 17.925V19.2H7.20001V17.925H5.55001Z" fill="black"/>
<path d="M16.5 17.7773C16.5 17.6932 16.5682 17.625 16.6523 17.625H18.5977C18.6818 17.625 18.75 17.6932 18.75 17.7773V19.3477C18.75 19.4318 18.6818 19.5 18.5977 19.5H16.6523C16.5682 19.5 16.5 19.4318 16.5 19.3477V17.7773Z" fill="black"/>
<path fill-rule="evenodd" clip-rule="evenodd" d="M16.2 17.7773C16.2 17.5275 16.4025 17.325 16.6524 17.325H18.5977C18.8475 17.325 19.05 17.5275 19.05 17.7773V19.3477C19.05 19.5975 18.8475 19.8 18.5977 19.8H16.6524C16.4025 19.8 16.2 19.5975 16.2 19.3477V17.7773ZM16.8 17.925V19.2H18.45V17.925H16.8Z" fill="black"/>
<path d="M2.25 15.3751C2.25 13.9254 3.42525 12.7501 4.875 12.7501H19.125C20.5747 12.7501 21.75 13.9254 21.75 15.3751C21.75 16.8249 20.5747 18.0001 19.125 18.0001H4.875C3.42525 18.0001 2.25 16.8249 2.25 15.3751Z" fill="black"/>
<path fill-rule="evenodd" clip-rule="evenodd" d="M1.875 15.3751C1.875 13.7183 3.21815 12.3751 4.875 12.3751H19.125C20.7819 12.3751 22.125 13.7183 22.125 15.3751C22.125 17.032 20.7819 18.3751 19.125 18.3751H4.875C3.21815 18.3751 1.875 17.032 1.875 15.3751ZM4.875 13.1251C3.63236 13.1251 2.625 14.1325 2.625 15.3751C2.625 16.6177 3.63236 17.6251 4.875 17.6251H19.125C20.3676 17.6251 21.375 16.6177 21.375 15.3751C21.375 14.1325 20.3676 13.1251 19.125 13.1251H4.875Z" fill="black"/>
<path d="M2.25 15.3751C2.25 13.9254 3.42525 12.7501 4.875 12.7501H17.625C19.0747 12.7501 20.25 13.9254 20.25 15.3751C20.25 16.8249 19.0747 18.0001 17.625 18.0001H4.875C3.42525 18.0001 2.25 16.8249 2.25 15.3751Z" fill="#00A970"/>
<path fill-rule="evenodd" clip-rule="evenodd" d="M1.875 15.3751C1.875 13.7183 3.21815 12.3751 4.875 12.3751H17.625C19.2819 12.3751 20.625 13.7183 20.625 15.3751C20.625 17.032 19.2819 18.3751 17.625 18.3751H4.875C3.21815 18.3751 1.875 17.032 1.875 15.3751ZM4.875 13.1251C3.63236 13.1251 2.625 14.1325 2.625 15.3751C2.625 16.6177 3.63236 17.6251 4.875 17.6251H17.625C18.8676 17.6251 19.875 16.6177 19.875 15.3751C19.875 14.1325 18.8676 13.1251 17.625 13.1251H4.875Z" fill="black"/>
<path d="M5.25 15.375C5.25 14.9608 5.58579 14.625 6 14.625C6.41421 14.625 6.75 14.9608 6.75 15.375C6.75 15.7892 6.41421 16.125 6 16.125C5.58579 16.125 5.25 15.7892 5.25 15.375Z" fill="black"/>
<path fill-rule="evenodd" clip-rule="evenodd" d="M5.10001 15.375C5.10001 14.8779 5.50295 14.475 6.00001 14.475C6.49706 14.475 6.90001 14.8779 6.90001 15.375C6.90001 15.8721 6.49706 16.275 6.00001 16.275C5.50295 16.275 5.10001 15.8721 5.10001 15.375ZM6.00001 14.775C5.66864 14.775 5.40001 15.0436 5.40001 15.375C5.40001 15.7064 5.66864 15.975 6.00001 15.975C6.33138 15.975 6.60001 15.7064 6.60001 15.375C6.60001 15.0436 6.33138 14.775 6.00001 14.775Z" fill="black"/>
<path d="M8.25 15.1523C8.25 15.0682 8.31821 15 8.40234 15H17.0977C17.1818 15 17.25 15.0682 17.25 15.1523V15.5977C17.25 15.6818 17.1818 15.75 17.0977 15.75H8.40234C8.31821 15.75 8.25 15.6818 8.25 15.5977V15.1523Z" fill="black"/>
<path fill-rule="evenodd" clip-rule="evenodd" d="M8.10001 15.1523C8.10001 14.9854 8.23537 14.85 8.40235 14.85H17.0977C17.2646 14.85 17.4 14.9854 17.4 15.1523V15.5977C17.4 15.7646 17.2646 15.9 17.0977 15.9H8.40235C8.23537 15.9 8.10001 15.7646 8.10001 15.5977V15.1523ZM8.40235 15.15C8.40106 15.15 8.40001 15.151 8.40001 15.1523V15.5977C8.40001 15.5989 8.40106 15.6 8.40235 15.6H17.0977C17.099 15.6 17.1 15.5989 17.1 15.5977V15.1523C17.1 15.151 17.099 15.15 17.0977 15.15H8.40235Z" fill="black"/>
<path d="M11.4489 10.3112C11.3887 9.75196 11.8037 9.25097 12.3757 9.19219C12.9477 9.13341 13.4601 9.53911 13.5202 10.0983L13.5231 10.1253C13.5832 10.6846 13.1683 11.1856 12.5963 11.2443C12.0243 11.3031 11.5119 10.8974 11.4518 10.3382L11.4489 10.3112Z" fill="black"/>
<path d="M9.8756 8.72248C9.65614 8.59679 9.57836 8.31667 9.73246 8.11809C9.97124 7.81038 10.2618 7.54425 10.5924 7.33185C11.0515 7.03693 11.5748 6.854 12.1196 6.79802C12.6644 6.74203 13.2152 6.81459 13.7269 7.00975C14.0955 7.15029 14.4362 7.35156 14.7352 7.604C14.9282 7.76691 14.9117 8.05672 14.7238 8.22428C14.5358 8.39183 14.2479 8.37244 14.0474 8.21875C13.8509 8.06814 13.6328 7.94613 13.3995 7.85716C13.0229 7.71355 12.6176 7.66016 12.2167 7.70135C11.8158 7.74255 11.4307 7.87717 11.0928 8.0942C10.8836 8.22864 10.6961 8.39233 10.536 8.57958C10.3725 8.77068 10.0951 8.84817 9.8756 8.72248Z" fill="black"/>
<path d="M8.39915 7.71709C8.15336 7.57632 8.06678 7.26338 8.23175 7.03536C8.60823 6.51496 9.08049 6.06765 9.62531 5.71764C10.3139 5.27525 11.0989 5.00086 11.9161 4.91688C12.7333 4.83291 13.5595 4.94174 14.3271 5.23448C14.9345 5.46609 15.4915 5.80763 15.9705 6.24013C16.1803 6.42963 16.1622 6.75333 15.9517 6.94099C15.7412 7.12865 15.4183 7.10858 15.2039 6.92415C14.8369 6.60845 14.4163 6.35744 13.9604 6.18359C13.3442 5.94858 12.6809 5.86121 12.0249 5.92862C11.3688 5.99604 10.7386 6.21632 10.1858 6.57147C9.77688 6.83419 9.41885 7.16521 9.12699 7.54862C8.95648 7.7726 8.64495 7.85787 8.39915 7.71709Z" fill="black"/>
<path d="M6.99556 6.59166C6.7574 6.45527 6.67395 6.15258 6.82812 5.92772C7.33247 5.19216 7.98095 4.56242 8.73691 4.07677C9.6321 3.50167 10.6526 3.14495 11.7149 3.03578C12.7773 2.92661 13.8513 3.06809 14.8493 3.44866C15.692 3.77003 16.4602 4.25418 17.11 4.87115C17.3086 5.05975 17.2913 5.37279 17.0874 5.55462C16.8834 5.73645 16.5702 5.71792 16.3692 5.53182C15.8264 5.02927 15.19 4.63369 14.494 4.36827C13.6427 4.04364 12.7265 3.92296 11.8203 4.01608C10.9141 4.1092 10.0436 4.41349 9.28001 4.90406C8.65567 5.30515 8.11728 5.82146 7.6932 6.42337C7.53616 6.64627 7.23371 6.72806 6.99556 6.59166Z" fill="black"/>
<path fill-rule="evenodd" clip-rule="evenodd" d="M14.8226 3.51873C13.8356 3.14234 12.7733 3.00241 11.7226 3.11038C10.6719 3.21835 9.66271 3.57115 8.77746 4.13986C8.0299 4.62012 7.38867 5.24283 6.88999 5.97013C6.76299 6.15535 6.82892 6.40979 7.03284 6.52658C7.23433 6.64198 7.49504 6.57441 7.6319 6.38017C8.06156 5.77034 8.60701 5.24727 9.23948 4.84095C10.013 4.34399 10.8948 4.03579 11.8127 3.94147C12.7305 3.84715 13.6585 3.96938 14.5207 4.29819C15.2256 4.56702 15.8703 4.96771 16.4202 5.47678C16.5959 5.63949 16.8654 5.65204 17.0375 5.49864C17.2114 5.3436 17.2226 5.08148 17.0583 4.92554C16.4158 4.3154 15.656 3.83657 14.8226 3.51873ZM11.7073 2.96117C12.7813 2.8508 13.8671 2.99384 14.876 3.37857C15.728 3.70347 16.5047 4.19296 17.1616 4.81676C17.3946 5.03802 17.3713 5.40198 17.1373 5.6106C16.9015 5.82086 16.5445 5.79634 16.3182 5.58685C15.7825 5.09083 15.1543 4.70034 14.4672 4.43834C13.6269 4.11789 12.7225 3.99876 11.828 4.09068C10.9335 4.1826 10.0742 4.48297 9.32056 4.96715C8.70435 5.36303 8.17301 5.87258 7.75452 6.46656C7.57729 6.71811 7.23311 6.81414 6.95829 6.65674C6.6859 6.50073 6.58493 6.14979 6.76628 5.8853C7.27629 5.14147 7.93203 4.50471 8.69638 4.01366C9.60151 3.43217 10.6333 3.07154 11.7073 2.96117ZM14.3004 5.30455C13.5437 5.01599 12.7293 4.90871 11.9238 4.99148C11.1183 5.07426 10.3445 5.34474 9.66586 5.78074C9.1289 6.12569 8.66351 6.56652 8.29252 7.07932C8.15693 7.26673 8.22432 7.53052 8.43644 7.65201C8.64511 7.77152 8.91637 7.70148 9.06732 7.50319C9.36449 7.11281 9.72899 6.77582 10.1453 6.50836C10.7081 6.14683 11.3495 5.92263 12.0172 5.85401C12.6849 5.7854 13.36 5.87432 13.9872 6.11351C14.4512 6.29045 14.8793 6.54593 15.2528 6.86729C15.4432 7.03105 15.7236 7.04391 15.9018 6.885C16.0827 6.72372 16.0933 6.45213 15.9202 6.29578C15.4482 5.86951 14.8991 5.53286 14.3004 5.30455ZM11.9084 4.84227C12.7373 4.7571 13.5753 4.86748 14.3539 5.1644C14.9699 5.39932 15.5349 5.74574 16.0207 6.18446C16.2673 6.40712 16.2417 6.78293 16.0016 6.99697C15.7589 7.21339 15.3935 7.1861 15.155 6.98101C14.7946 6.67095 14.3815 6.42442 13.9337 6.25366C13.3284 6.02283 12.6769 5.93701 12.0325 6.00323C11.3882 6.06944 10.7693 6.2858 10.2264 6.63456C9.82478 6.89256 9.47323 7.2176 9.18667 7.59405C8.99661 7.84372 8.6448 7.9442 8.36189 7.78217C8.08241 7.6221 7.97664 7.26003 8.17099 6.99139C8.55297 6.4634 9.03209 6.0096 9.58478 5.65453C10.2833 5.20576 11.0796 4.92744 11.9084 4.84227ZM13.7002 7.07982C13.1994 6.88883 12.6604 6.81783 12.1272 6.87262C11.5941 6.9274 11.0821 7.10641 10.6329 7.39495C10.3095 7.60274 10.0253 7.86309 9.79172 8.16407C9.67008 8.32082 9.72631 8.55053 9.91288 8.65739C10.0946 8.76149 10.3338 8.7006 10.479 8.53083C10.6439 8.33802 10.8369 8.16949 11.0523 8.03109C11.4001 7.80768 11.7965 7.66914 12.209 7.62674C12.6216 7.58435 13.0387 7.63929 13.4262 7.78708C13.6663 7.87863 13.8908 8.00421 14.0931 8.15922C14.2717 8.29617 14.5186 8.30667 14.6739 8.16829C14.8329 8.02653 14.8399 7.79051 14.6869 7.6613C14.3943 7.4143 14.0609 7.21736 13.7002 7.07982ZM12.1119 6.7234C12.6684 6.66622 13.2309 6.74033 13.7537 6.93966C14.1301 7.08322 14.4782 7.2888 14.7836 7.54669C15.0165 7.74331 14.9905 8.08691 14.7737 8.28025C14.553 8.47699 14.2242 8.44871 14.0018 8.27827C13.8111 8.13207 13.5993 8.01361 13.3728 7.92724C13.0071 7.7878 12.6136 7.73596 12.2244 7.77596C11.8351 7.81596 11.4613 7.94665 11.1334 8.15729C10.9303 8.28777 10.7484 8.44663 10.593 8.62833C10.4113 8.84076 10.0955 8.93484 9.83834 8.78755C9.586 8.64303 9.48666 8.31251 9.67322 8.07211C9.91722 7.75767 10.2141 7.48574 10.5518 7.26875C11.0209 6.96744 11.5555 6.78059 12.1119 6.7234ZM13.4456 10.1063C13.3901 9.5897 12.9158 9.21208 12.3833 9.26679C11.8511 9.32148 11.4679 9.78681 11.5234 10.3032L11.5263 10.3302C11.5819 10.8468 12.0562 11.2244 12.5886 11.1697C13.1208 11.115 13.504 10.6497 13.4485 10.1334L13.4456 10.1063ZM12.368 9.11758C12.9795 9.05474 13.5301 9.48851 13.5948 10.0903L13.5977 10.1173C13.6624 10.7194 13.2157 11.2561 12.604 11.3189C11.9925 11.3818 11.4419 10.948 11.3772 10.3462L11.3743 10.3192C11.3096 9.71709 11.7563 9.18044 12.368 9.11758Z" fill="black"/>
</svg>
