<svg width="80" height="81" viewBox="0 0 80 81" fill="none" xmlns="http://www.w3.org/2000/svg">
<path d="M56.6525 62.25L23.3475 62.25C20.4675 62.25 18.125 59.9075 18.125 57.0275L18.125 23.7225C18.125 20.8425 20.4675 18.5 23.3475 18.5L56.6525 18.5C59.5325 18.5 61.875 20.8425 61.875 23.7225L61.875 57.0275C61.875 59.9075 59.5325 62.25 56.6525 62.25V62.25Z" fill="#EBF8F4"/>
<path d="M68.25 24.375V15.4176C68.25 13.671 66.829 12.25 65.0825 12.25H56.125C53.646 12.25 53.6425 8.5 56.125 8.5H65.0825C68.8967 8.5 72 11.6033 72 15.4176V24.375C72 26.854 68.25 26.8575 68.25 24.375Z" fill="#1C211F"/>
<path d="M65.0825 72.5H56.125C53.646 72.5 53.6425 68.75 56.125 68.75H65.0825C66.8291 68.75 68.25 67.329 68.25 65.5823V56.625C68.25 54.146 72 54.1425 72 56.625V65.5823C72 69.3967 68.8967 72.5 65.0825 72.5V72.5Z" fill="#1C211F"/>
<path d="M8 24.375V15.4176C8 11.6033 11.1033 8.5 14.9175 8.5H23.875C26.354 8.5 26.3575 12.25 23.875 12.25H14.9175C13.171 12.25 11.75 13.671 11.75 15.4176V24.375C11.75 26.854 8 26.8575 8 24.375V24.375Z" fill="#1C211F"/>
<path d="M23.875 72.5H14.9175C11.1033 72.5 8 69.3967 8 65.5823V56.625C8 54.146 11.75 54.1425 11.75 56.625V65.5823C11.75 67.329 13.171 68.75 14.9175 68.75H23.875C26.354 68.75 26.3575 72.5 23.875 72.5Z" fill="#1C211F"/>
<path d="M56.6523 62.25H50.7054C48.2264 62.25 48.2229 58.5 50.7054 58.5H56.6523C57.4644 58.5 58.125 57.8394 58.125 57.0273V51.0805C58.125 48.6015 61.875 48.598 61.875 51.0805V57.0273C61.875 59.9072 59.532 62.25 56.6523 62.25Z" fill="#00A970"/>
<path d="M58.125 29.6695V23.7227C58.125 22.9106 57.4643 22.25 56.6523 22.25H50.7054C48.2264 22.25 48.2229 18.5 50.7054 18.5H56.6523C59.532 18.5 61.875 20.8429 61.875 23.7227V29.6695C61.875 32.1485 58.125 32.152 58.125 29.6695Z" fill="#00A970"/>
<path d="M18.125 29.6695V23.7227C18.125 20.8429 20.468 18.5 23.3478 18.5H29.2946C31.7736 18.5 31.7771 22.25 29.2946 22.25H23.3478C22.5356 22.25 21.875 22.9106 21.875 23.7227V29.6695C21.875 32.1485 18.125 32.152 18.125 29.6695Z" fill="#00A970"/>
<path d="M29.2946 62.25H23.3478C20.468 62.25 18.125 59.9072 18.125 57.0273V51.0805C18.125 48.6015 21.875 48.598 21.875 51.0805V57.0273C21.875 57.8394 22.5358 58.5 23.3478 58.5H29.2946C31.7736 58.5 31.7771 62.25 29.2946 62.25Z" fill="#00A970"/>
<path opacity="0.2" d="M56.6525 62.25L23.3475 62.25C20.4675 62.25 18.125 59.9075 18.125 57.0275L18.125 40.375L61.875 40.375L61.875 57.0275C61.875 59.9075 59.5325 62.25 56.6525 62.25Z" fill="#00A970"/>
<path d="M69.9999 42.375H9.99994C7.51944 42.375 7.51869 38.625 9.99994 38.625H69.9999C72.4804 38.625 72.4812 42.375 69.9999 42.375Z" fill="#00A970"/>
</svg>
