<svg width="24" height="24" viewBox="0 0 24 24" fill="none" xmlns="http://www.w3.org/2000/svg">
<path fill-rule="evenodd" clip-rule="evenodd" d="M6.05399 7.8534L7.6273 7.36177C8.14848 7.19892 8.70015 7.49872 8.85949 8.0314C9.01883 8.56408 8.7255 9.12792 8.20433 9.29077L4.42961 10.4703C3.90844 10.6331 3.35677 10.3333 3.19743 9.80066L2.04338 5.94266C1.88404 5.40998 2.17737 4.84614 2.69855 4.68328C3.21973 4.52042 3.7714 4.82022 3.93074 5.3529L4.36545 6.80618C6.73969 3.0643 11.4539 1.45617 15.639 3.20924C18.1728 4.2706 20.1168 6.42402 20.9484 9.09057C21.114 9.62128 20.8272 10.1886 20.308 10.3578C19.7887 10.527 19.2336 10.2339 19.0681 9.7032C18.4137 7.60513 16.8841 5.9108 14.8905 5.07571C11.6173 3.70459 7.93265 4.9467 6.05399 7.8534ZM18.2185 16.1195L16.4669 16.5659C15.9381 16.7006 15.4025 16.3717 15.2706 15.8312C15.1388 15.2908 15.4606 14.7434 15.9894 14.6086L19.5835 13.6928C19.7665 13.6035 19.9766 13.5714 20.1862 13.611C20.5766 13.6633 20.9145 13.9532 21.0155 14.3673L21.9705 18.2817C22.1023 18.8222 21.7805 19.3696 21.2517 19.5043C20.7229 19.6391 20.1873 19.3102 20.0555 18.7697L19.7301 17.4357C18.7221 18.9178 17.3086 20.0914 15.639 20.7908C10.9082 22.7724 5.5013 20.4592 3.56242 15.624L3.30644 14.9856C3.09976 14.4702 3.34102 13.8811 3.8453 13.6699C4.34959 13.4586 4.92593 13.7052 5.13261 14.2206L5.38859 14.859C6.91412 18.6634 11.1683 20.4835 14.8905 18.9243C16.2656 18.3483 17.4199 17.3635 18.2185 16.1195Z" fill="#00A970"/>
</svg>
