<svg width="24" height="24" viewBox="0 0 24 24" fill="none" xmlns="http://www.w3.org/2000/svg">
<path fill-rule="evenodd" clip-rule="evenodd" d="M12.4443 4.55034C12.1708 4.38624 11.8292 4.38624 11.5557 4.55034L4.64657 8.6958C4.38644 8.85188 4.22727 9.133 4.22727 9.43636L4.22727 18.822C4.22727 19.299 4.61394 19.6857 5.09091 19.6857H8.54545L8.54545 16.2311C8.54545 14.3232 10.0921 12.7766 12 12.7766C13.9079 12.7766 15.4545 14.3232 15.4545 16.2311L15.4545 19.6857H18.9091C19.3861 19.6857 19.7727 19.299 19.7727 18.822L19.7727 9.43636C19.7727 9.133 19.6136 8.85188 19.3534 8.6958L12.4443 4.55034ZM10.667 3.06922C11.4875 2.57692 12.5125 2.57692 13.333 3.06922L20.2421 7.21467C21.0225 7.68291 21.5 8.52627 21.5 9.43636L21.5 18.822C21.5 20.253 20.34 21.4129 18.9091 21.4129H14.5909C14.1139 21.4129 13.7273 21.0263 13.7273 20.5493L13.7273 16.2311C13.7273 15.2772 12.9539 14.5039 12 14.5039C11.0461 14.5039 10.2727 15.2772 10.2727 16.2311L10.2727 20.5493C10.2727 21.0263 9.88606 21.4129 9.40909 21.4129H5.09091C3.65999 21.4129 2.5 20.253 2.5 18.822L2.5 9.43636C2.5 8.52627 2.9775 7.68291 3.7579 7.21467L10.667 3.06922Z" fill="#00A970"/>
</svg>
