<svg width="80" height="80" viewBox="0 0 80 80" fill="none" xmlns="http://www.w3.org/2000/svg">
<path fill-rule="evenodd" clip-rule="evenodd" d="M23.3079 22.8295C20.5033 14.8152 25.2349 6.08755 33.8763 3.33569C42.5176 0.583829 51.7964 4.84988 54.601 12.8642L57.3578 20.7417C57.8175 22.0552 57.1267 23.4708 55.8064 23.9935C55.6844 24.0418 55.5554 24.0697 55.4257 24.0894L52.6949 24.5047C52.5652 24.5244 52.4365 24.5564 52.3097 24.5903C51.0654 24.923 51.1107 24.1875 50.6521 22.8771L47.8954 14.9996C46.2927 10.42 40.9906 7.98227 36.0526 9.55476C31.1147 11.1273 28.4109 16.1145 30.0136 20.6941L32.7703 28.5716C33.2511 29.9455 32.4733 31.431 31.0331 31.8897L29.543 32.3642C28.1027 32.8229 26.5454 32.0809 26.0646 30.707L23.3079 22.8295Z" fill="white"/>
<path fill-rule="evenodd" clip-rule="evenodd" d="M33.497 2.14464C42.711 -0.78959 52.7287 3.7294 55.7809 12.4513L58.5377 20.3288C59.2334 22.3169 58.1688 24.4027 56.2665 25.1557C56.0213 25.2528 55.7891 25.2985 55.6136 25.3252L52.8829 25.7405C52.8245 25.7493 52.7507 25.7663 52.6326 25.7979C52.2404 25.9027 51.7725 25.9763 51.2989 25.8628C50.7552 25.7325 50.3826 25.4023 50.1423 25.0373C49.9377 24.7266 49.8187 24.3732 49.7395 24.1267C49.7045 24.0178 49.6743 23.9193 49.6448 23.8234C49.5923 23.6528 49.5423 23.49 49.4723 23.29L46.7156 15.4125C45.3605 11.5405 40.7972 9.35571 36.432 10.7458C32.0867 12.1296 29.8497 16.4415 31.1934 20.2812L33.9502 28.1587C34.6788 30.2406 33.4791 32.4226 31.4124 33.0808L29.9223 33.5553C27.8783 34.2062 25.603 33.1722 24.8848 31.1199L22.1281 23.2424C19.0646 14.4883 24.263 5.08522 33.497 2.14464ZM53.4212 13.2771C50.8642 5.97038 42.3243 1.95727 34.2556 4.52676C26.2069 7.0899 21.9421 15.1422 24.4878 22.4167L27.2445 30.2942C27.4879 30.9897 28.3272 31.4396 29.1637 31.1732L30.6538 30.6986C31.4676 30.4395 31.8235 29.6504 31.5905 28.9845L28.8338 21.107C26.9722 15.7876 30.1428 10.1249 35.6734 8.36371C41.184 6.60885 47.225 9.29953 49.0752 14.5867L51.832 22.4642C51.9166 22.7061 51.9942 22.9575 52.0543 23.1525C52.0775 23.2278 52.0982 23.2946 52.1156 23.3493C52.2299 23.3207 52.364 23.2906 52.507 23.2689L55.2378 22.8536C55.2779 22.8475 55.3052 22.842 55.324 22.8375M53.4212 13.2771L56.178 21.1546L53.4212 13.2771ZM56.178 21.1546C56.4015 21.7934 56.0848 22.5387 55.3468 22.8311L56.178 21.1546Z" fill="black"/>
<path fill-rule="evenodd" clip-rule="evenodd" d="M23.2502 22.8295C20.6459 14.8152 25.0395 6.08755 33.0637 3.33569C41.0878 0.583829 49.7038 4.84988 52.3081 12.8642L54.8679 20.7417C55.3144 22.1156 54.5922 23.6011 53.2548 24.0597L51.8711 24.5343C50.5338 24.9929 49.0877 24.251 48.6412 22.8771L46.0814 14.9996C44.5932 10.42 39.6698 7.98227 35.0846 9.55476C30.4994 11.1273 27.9887 16.1145 29.4769 20.6941L32.0367 28.5716C32.4832 29.9455 31.761 31.431 30.4236 31.8897L29.0399 32.3642C27.7025 32.8229 26.2565 32.0809 25.81 30.707L23.2502 22.8295Z" fill="white"/>
<path fill-rule="evenodd" clip-rule="evenodd" d="M32.6582 2.1534C41.3353 -0.822383 50.6744 3.79199 53.497 12.478L56.0568 20.3555C56.7065 22.3547 55.6666 24.5542 53.6604 25.2423L52.2767 25.7168C50.2543 26.4104 48.1067 25.2766 47.4525 23.2635L44.8927 15.386C43.6228 11.4781 39.4224 9.3887 35.4901 10.7373C31.5433 12.0908 29.3908 16.3846 30.6657 20.3079L33.2256 28.1854C33.8752 30.1847 32.8354 32.3842 30.8291 33.0722L29.4454 33.5467C27.4231 34.2403 25.2754 33.1066 24.6213 31.0935L22.0614 23.216C19.2439 14.5454 23.9958 5.12417 32.6582 2.1534ZM51.1193 13.2506C48.7333 5.90799 40.8404 1.99025 33.4692 4.5182C26.0834 7.05114 22.048 15.0853 24.439 22.4433L26.9989 30.3208C27.2376 31.0555 27.9821 31.4057 28.6344 31.1819L30.0181 30.7074C30.6866 30.4781 31.0912 29.7065 30.848 28.958L28.2881 21.0805C26.5867 15.8446 29.4556 10.1639 34.6791 8.37247C39.9173 6.57606 45.5638 9.36212 47.2703 14.6134L49.8301 22.4909C50.0688 23.2256 50.8133 23.5757 51.4657 23.352L52.8494 22.8775C53.5178 22.6482 53.9224 21.8766 53.6792 21.1281L51.1193 13.2506Z" fill="black"/>
<path d="M17.5 33.7487C17.5 31.6776 19.1789 29.9987 21.25 29.9987H58.75C60.8211 29.9987 62.5 31.6776 62.5 33.7487V66.2487C62.5 68.3197 60.8211 69.9987 58.75 69.9987H21.25C19.1789 69.9987 17.5 68.3197 17.5 66.2487V33.7487Z" fill="black"/>
<path fill-rule="evenodd" clip-rule="evenodd" d="M16.25 33.7487C16.25 30.9872 18.4886 28.7487 21.25 28.7487H58.75C61.5114 28.7487 63.75 30.9872 63.75 33.7487V66.2487C63.75 69.0101 61.5114 71.2487 58.75 71.2487H21.25C18.4886 71.2487 16.25 69.0101 16.25 66.2487V33.7487ZM21.25 31.2487C19.8693 31.2487 18.75 32.368 18.75 33.7487V66.2487C18.75 67.6294 19.8693 68.7487 21.25 68.7487H58.75C60.1307 68.7487 61.25 67.6294 61.25 66.2487V33.7487C61.25 32.368 60.1307 31.2487 58.75 31.2487H21.25Z" fill="black"/>
<path d="M17.5 33.7487C17.5 31.6776 19.1789 29.9987 21.25 29.9987H53.75C55.8211 29.9987 57.5 31.6776 57.5 33.7487V66.2487C57.5 68.3197 55.8211 69.9987 53.75 69.9987H21.25C19.1789 69.9987 17.5 68.3197 17.5 66.2487V33.7487Z" fill="#00A970"/>
<path fill-rule="evenodd" clip-rule="evenodd" d="M16.25 33.7487C16.25 30.9872 18.4886 28.7487 21.25 28.7487H53.75C56.5114 28.7487 58.75 30.9872 58.75 33.7487V66.2487C58.75 69.0101 56.5114 71.2487 53.75 71.2487H21.25C18.4886 71.2487 16.25 69.0101 16.25 66.2487V33.7487ZM21.25 31.2487C19.8693 31.2487 18.75 32.368 18.75 33.7487V66.2487C18.75 67.6294 19.8693 68.7487 21.25 68.7487H53.75C55.1307 68.7487 56.25 67.6294 56.25 66.2487V33.7487C56.25 32.368 55.1307 31.2487 53.75 31.2487H21.25Z" fill="black"/>
<path d="M41.1314 56.7186C41.3158 57.5611 40.6759 58.3605 39.8083 58.3605H35.0798C34.2122 58.3605 33.5723 57.5611 33.7567 56.7186L35.5062 48.8975C35.5617 48.6495 35.4409 48.3984 35.2286 48.2587C33.948 47.4167 33.1654 45.8992 33.453 44.21C33.7241 42.5681 35.0581 41.2179 36.7066 40.9262C39.266 40.4726 41.5002 42.4277 41.5002 44.9013C41.5002 46.3049 40.7673 47.5325 39.66 48.2589C39.4474 48.3984 39.3264 48.6497 39.3819 48.8979L41.1314 56.7186Z" fill="black"/>
</svg>
