<svg width="64" height="64" viewBox="0 0 64 64" fill="none" xmlns="http://www.w3.org/2000/svg">
<path d="M55.6386 33.8118C55.8142 34.0627 56.1858 34.0627 56.3614 33.8118L62.5141 25.0223C62.7188 24.7299 62.5096 24.3281 62.1527 24.3281H49.8473C49.4904 24.3281 49.2812 24.7299 49.4859 25.0223L55.6386 33.8118Z" fill="black"/>
<path fill-rule="evenodd" clip-rule="evenodd" d="M54.8194 34.3853C55.3931 35.2049 56.607 35.2049 57.1807 34.3853L63.3334 25.5957C64.002 24.6406 63.3187 23.3281 62.1527 23.3281H49.8474C48.6814 23.3281 47.9981 24.6406 48.6667 25.5957L54.8194 34.3853ZM56 32.5843L50.9207 25.3281H61.0794L56 32.5843Z" fill="black"/>
<path d="M7.63859 33.8118C7.81422 34.0627 8.18579 34.0627 8.36142 33.8118L14.5141 25.0223C14.7188 24.7299 14.5096 24.3281 14.1527 24.3281H1.84732C1.49041 24.3281 1.28124 24.7299 1.48591 25.0223L7.63859 33.8118Z" fill="black"/>
<path fill-rule="evenodd" clip-rule="evenodd" d="M6.81939 34.3853C7.39312 35.2049 8.60695 35.2049 9.18068 34.3853L15.3334 25.5957C16.002 24.6406 15.3187 23.3281 14.1527 23.3281H1.84735C0.681421 23.3281 -0.00190759 24.6406 0.66671 25.5957L6.81939 34.3853ZM8.00004 32.5843L2.92069 25.3281H13.0794L8.00004 32.5843Z" fill="black"/>
<path fill-rule="evenodd" clip-rule="evenodd" d="M12 10C12 8.89543 12.8954 8 14 8L50 8C51.1046 8 52 8.89543 52 10C52 11.1046 51.1046 12 50 12L14 12C12.8954 12 12 11.1046 12 10Z" fill="black"/>
<path d="M18 10L46 10V52.4C46 53.2837 45.2837 54 44.4 54H19.6C18.7163 54 18 53.2837 18 52.4L18 10Z" fill="#00A970"/>
<path fill-rule="evenodd" clip-rule="evenodd" d="M17 9L47 9V52.4C47 53.8359 45.8359 55 44.4 55H19.6C18.1641 55 17 53.8359 17 52.4L17 9ZM19 11L19 52.4C19 52.7314 19.2686 53 19.6 53H44.4C44.7314 53 45 52.7314 45 52.4V11L19 11Z" fill="black"/>
<path fill-rule="evenodd" clip-rule="evenodd" d="M28.0026 53.9999L19.75 53.9999C18.7835 53.9999 18 53.2164 18 52.2499L18 43.9999C18.0008 43.9999 18.0017 43.9999 18.0026 43.9999C23.5254 43.9999 28.0026 48.4771 28.0026 53.9999C28.0026 53.9999 28.0026 53.9999 28.0026 53.9999Z" fill="white"/>
<path fill-rule="evenodd" clip-rule="evenodd" d="M29.0026 54.9999L19.75 54.9999C18.2312 54.9999 17 53.7687 17 52.2499L17 42.9999L18.0026 42.9999C24.0777 42.9999 29.0026 47.9248 29.0026 53.9999L29.0026 54.9999ZM26.9476 52.9999C26.4864 48.8275 23.1728 45.5146 19 45.0546L19 52.2499C19 52.6641 19.3357 52.9999 19.75 52.9999L26.9476 52.9999Z" fill="black"/>
<path fill-rule="evenodd" clip-rule="evenodd" d="M45.9987 43.9999L45.9987 52.2499C45.9987 53.2164 45.2152 53.9999 44.2487 53.9999L35.9983 53.9999C35.9983 48.4771 40.4756 43.9999 45.9987 43.9999Z" fill="white"/>
<path fill-rule="evenodd" clip-rule="evenodd" d="M44.9987 45.0549C40.8268 45.516 37.5144 48.8283 37.0533 52.9999L44.2487 52.9999C44.6629 52.9999 44.9987 52.6641 44.9987 52.2499L44.9987 45.0549ZM46.9987 52.2499C46.9987 53.7687 45.7674 54.9999 44.2487 54.9999L34.9983 54.9999L34.9983 53.9999C34.9983 47.9248 39.9234 42.9999 45.9987 42.9999L46.9987 42.9999L46.9987 52.2499Z" fill="black"/>
<path d="M22.9949 30C22.9949 25.0294 27.0243 21 31.9949 21C36.9654 21 40.9949 25.0294 40.9949 30C40.9949 34.9706 36.9654 39 31.9949 39C27.0243 39 22.9949 34.9706 22.9949 30Z" fill="white"/>
<path fill-rule="evenodd" clip-rule="evenodd" d="M22.1948 30C22.1948 24.5876 26.5824 20.2 31.9948 20.2C37.4072 20.2 41.7948 24.5876 41.7948 30C41.7948 35.4123 37.4072 39.7999 31.9948 39.7999C26.5824 39.7999 22.1948 35.4123 22.1948 30ZM31.9948 21.8C27.4661 21.8 23.7948 25.4712 23.7948 30C23.7948 34.5287 27.4661 38.2 31.9948 38.2C36.5236 38.2 40.1948 34.5287 40.1948 30C40.1948 25.4712 36.5236 21.8 31.9948 21.8Z" fill="black"/>
<path d="M28.9988 34.5652H30.5954V30.4394L28.9988 29.6401V34.5652Z" fill="black"/>
<path d="M33.6542 28.1576L31.3299 27.5826C30.8208 27.4058 30.5942 27.2449 30.5942 26.683V25H28.9949V26.7358C28.9949 27.8622 29.2108 28.6905 30.8954 29.1099L33.2224 29.685H33.2437C33.7368 29.8565 33.9581 30.02 33.9581 30.5766V34.5204H35.5574V30.5423C35.5574 28.8039 34.7764 28.432 33.6569 28.1682" fill="black"/>
</svg>
