<svg width="64" height="64" viewBox="0 0 64 64" fill="none" xmlns="http://www.w3.org/2000/svg">
<path d="M6 19C6 17.3431 7.34315 16 9 16L55 16C56.6569 16 58 17.3431 58 19L58 45C58 46.6569 56.6569 48 55 48H9C7.34314 48 6 46.6569 6 45L6 19Z" fill="black"/>
<path fill-rule="evenodd" clip-rule="evenodd" d="M5 19C5 16.7909 6.79086 15 9 15L55 15C57.2091 15 59 16.7909 59 19L59 45C59 47.2091 57.2091 49 55 49H9C6.79086 49 5 47.2091 5 45L5 19ZM9 17C7.89543 17 7 17.8954 7 19L7 45C7 46.1046 7.89543 47 9 47H55C56.1046 47 57 46.1046 57 45L57 19C57 17.8954 56.1046 17 55 17L9 17Z" fill="black"/>
<path d="M6 19C6 17.3431 7.34315 16 9 16L51 16C52.6569 16 54 17.3431 54 19L54 45C54 46.6569 52.6569 48 51 48H9C7.34315 48 6 46.6569 6 45L6 19Z" fill="#00A970"/>
<path fill-rule="evenodd" clip-rule="evenodd" d="M5 19C5 16.7909 6.79086 15 9 15L51 15C53.2091 15 55 16.7909 55 19L55 45C55 47.2091 53.2091 49 51 49H9C6.79086 49 5 47.2091 5 45L5 19ZM9 17C7.89543 17 7 17.8954 7 19L7 45C7 46.1046 7.89543 47 9 47H51C52.1046 47 53 46.1046 53 45L53 19C53 17.8954 52.1046 17 51 17L9 17Z" fill="black"/>
<path fill-rule="evenodd" clip-rule="evenodd" d="M36.5 22C36.5 21.1716 37.1716 20.5 38 20.5H46C46.8284 20.5 47.5 21.1716 47.5 22C47.5 22.8284 46.8284 23.5 46 23.5H38C37.1716 23.5 36.5 22.8284 36.5 22Z" fill="white"/>
<path fill-rule="evenodd" clip-rule="evenodd" d="M11.2 38.0002C11.2 36.4538 12.4536 35.2002 14 35.2002H53V36.8002H14C13.3373 36.8002 12.8 37.3375 12.8 38.0002V47.0002H11.2V38.0002Z" fill="white"/>
<path fill-rule="evenodd" clip-rule="evenodd" d="M18.8 17V26C18.8 26.6627 19.3373 27.2 20 27.2H34C35.5464 27.2 36.8 28.4536 36.8 30V47H35.2V30C35.2 29.3373 34.6627 28.8 34 28.8H20C18.4536 28.8 17.2 27.5464 17.2 26V17H18.8Z" fill="#FFC300"/>
</svg>
