<svg width="64" height="64" viewBox="0 0 64 64" fill="none" xmlns="http://www.w3.org/2000/svg">
<path d="M55.6385 33.8118C55.8141 34.0627 56.1857 34.0627 56.3613 33.8118L62.514 25.0223C62.7187 24.7299 62.5095 24.3281 62.1526 24.3281H49.8472C49.4903 24.3281 49.2811 24.7299 49.4858 25.0223L55.6385 33.8118Z" fill="black"/>
<path fill-rule="evenodd" clip-rule="evenodd" d="M54.8193 34.3853C55.393 35.2049 56.6068 35.2049 57.1806 34.3853L63.3332 25.5957C64.0019 24.6406 63.3185 23.3281 62.1526 23.3281H49.8472C48.6813 23.3281 47.998 24.6406 48.6666 25.5957L54.8193 34.3853ZM55.9999 32.5843L50.9206 25.3281H61.0793L55.9999 32.5843Z" fill="black"/>
<path d="M7.63847 33.8118C7.8141 34.0627 8.18567 34.0627 8.3613 33.8118L14.514 25.0223C14.7187 24.7299 14.5095 24.3281 14.1526 24.3281H1.8472C1.49029 24.3281 1.28111 24.7299 1.48579 25.0223L7.63847 33.8118Z" fill="black"/>
<path fill-rule="evenodd" clip-rule="evenodd" d="M6.81927 34.3853C7.393 35.2049 8.60683 35.2049 9.18056 34.3853L15.3332 25.5957C16.0019 24.6406 15.3185 23.3281 14.1526 23.3281H1.84723C0.681298 23.3281 -0.00202966 24.6406 0.666588 25.5957L6.81927 34.3853ZM7.99991 32.5843L2.92057 25.3281H13.0793L7.99991 32.5843Z" fill="black"/>
<path fill-rule="evenodd" clip-rule="evenodd" d="M12 10C12 8.89543 12.8954 8 14 8L50 8C51.1046 8 52 8.89543 52 10C52 11.1046 51.1046 12 50 12L14 12C12.8954 12 12 11.1046 12 10Z" fill="black"/>
<path d="M18 10L46 10V52.4C46 53.2837 45.2837 54 44.4 54H19.6C18.7163 54 18 53.2837 18 52.4L18 10Z" fill="#00A970"/>
<path fill-rule="evenodd" clip-rule="evenodd" d="M17 9L47 9V52.4C47 53.8359 45.8359 55 44.4 55H19.6C18.1641 55 17 53.8359 17 52.4L17 9ZM19 11L19 52.4C19 52.7314 19.2686 53 19.6 53H44.4C44.7314 53 45 52.7314 45 52.4V11L19 11Z" fill="black"/>
<path fill-rule="evenodd" clip-rule="evenodd" d="M28.0027 53.9999L19.7501 53.9999C18.7836 53.9999 18.0001 53.2164 18.0001 52.2499L18.0001 43.9999C18.001 43.9999 18.0018 43.9999 18.0027 43.9999C23.5255 43.9999 28.0027 48.4771 28.0027 53.9999C28.0027 53.9999 28.0027 53.9999 28.0027 53.9999Z" fill="white"/>
<path fill-rule="evenodd" clip-rule="evenodd" d="M29.0027 54.9999L19.7501 54.9999C18.2313 54.9999 17.0001 53.7687 17.0001 52.2499L17.0001 42.9999L18.0027 42.9999C24.0778 42.9999 29.0027 47.9248 29.0027 53.9999L29.0027 54.9999ZM26.9478 52.9999C26.4865 48.8275 23.1729 45.5146 19.0001 45.0546L19.0001 52.2499C19.0001 52.6641 19.3359 52.9999 19.7501 52.9999L26.9478 52.9999Z" fill="black"/>
<path fill-rule="evenodd" clip-rule="evenodd" d="M45.9988 43.9999L45.9988 52.2499C45.9988 53.2164 45.2153 53.9999 44.2488 53.9999L35.9984 53.9999C35.9984 48.4771 40.4757 43.9999 45.9988 43.9999Z" fill="white"/>
<path fill-rule="evenodd" clip-rule="evenodd" d="M44.9988 45.0549C40.827 45.516 37.5145 48.8283 37.0534 52.9999L44.2488 52.9999C44.663 52.9999 44.9988 52.6641 44.9988 52.2499L44.9988 45.0549ZM46.9988 52.2499C46.9988 53.7687 45.7676 54.9999 44.2488 54.9999L34.9984 54.9999L34.9984 53.9999C34.9984 47.9248 39.9235 42.9999 45.9988 42.9999L46.9988 42.9999L46.9988 52.2499Z" fill="black"/>
<path d="M22.9949 30C22.9949 25.0294 27.0243 21 31.9949 21C36.9654 21 40.9949 25.0294 40.9949 30C40.9949 34.9706 36.9654 39 31.9949 39C27.0243 39 22.9949 34.9706 22.9949 30Z" fill="white"/>
<path fill-rule="evenodd" clip-rule="evenodd" d="M22.1948 30C22.1948 24.5876 26.5824 20.2 31.9948 20.2C37.4072 20.2 41.7948 24.5876 41.7948 30C41.7948 35.4123 37.4072 39.7999 31.9948 39.7999C26.5824 39.7999 22.1948 35.4123 22.1948 30ZM31.9948 21.8C27.4661 21.8 23.7948 25.4712 23.7948 30C23.7948 34.5287 27.4661 38.2 31.9948 38.2C36.5236 38.2 40.1948 34.5287 40.1948 30C40.1948 25.4712 36.5236 21.8 31.9948 21.8Z" fill="black"/>
<path d="M28.9988 34.5652H30.5954V30.4394L28.9988 29.6401V34.5652Z" fill="black"/>
<path d="M33.6542 28.1576L31.3299 27.5826C30.8208 27.4058 30.5942 27.2449 30.5942 26.683V25H28.9949V26.7358C28.9949 27.8622 29.2108 28.6905 30.8954 29.1099L33.2224 29.685H33.2437C33.7368 29.8565 33.9581 30.02 33.9581 30.5766V34.5204H35.5574V30.5423C35.5574 28.8039 34.7764 28.432 33.6569 28.1682" fill="black"/>
</svg>
