<svg width="48" height="48" viewBox="0 0 48 48" fill="none" xmlns="http://www.w3.org/2000/svg">
<path fill-rule="evenodd" clip-rule="evenodd" d="M23.7405 25.5588L28.2862 30.1045C28.7883 30.6066 29.6024 30.6066 30.1045 30.1045C30.6066 29.6024 30.6066 28.7884 30.1045 28.2863L25.5588 23.7406L30.1045 19.1949C30.6066 18.6928 30.6066 17.8787 30.1045 17.3766C29.6024 16.8745 28.7883 16.8745 28.2862 17.3766L23.7405 21.9223L19.1949 17.3766C18.6928 16.8745 17.8787 16.8745 17.3766 17.3766C16.8745 17.8787 16.8745 18.6928 17.3766 19.1949L21.9223 23.7406L17.3766 28.2863C16.8745 28.7884 16.8745 29.6024 17.3766 30.1045C17.8787 30.6066 18.6927 30.6066 19.1949 30.1045L23.7405 25.5588Z" fill="#5E6160"/>
</svg>
