<svg width="20" height="20" viewBox="0 0 20 20" fill="none" xmlns="http://www.w3.org/2000/svg">
<path fill-rule="evenodd" clip-rule="evenodd" d="M10.8332 5C10.8332 3.15905 9.34079 1.66666 7.49984 1.66666C5.65889 1.66666 4.1665 3.15905 4.1665 5V6.66666C4.1665 8.50761 5.65889 10 7.49984 10C9.34079 10 10.8332 8.50761 10.8332 6.66666V5ZM5.69198 10.5278C5.52325 10.0996 5.03935 9.88929 4.61116 10.058C2.83438 10.7582 1.6665 12.4737 1.6665 14.3834V15.8333C1.6665 17.214 2.78579 18.3333 4.1665 18.3333H10.8332C12.2139 18.3333 13.3332 17.214 13.3332 15.8333V14.461C13.3332 12.5044 12.1249 10.7511 10.2965 10.0546C9.86641 9.89075 9.38494 10.1066 9.2211 10.5367C9.05726 10.9668 9.27309 11.4482 9.70317 11.6121C10.8853 12.0624 11.6665 13.196 11.6665 14.461V15.8333C11.6665 16.2936 11.2934 16.6667 10.8332 16.6667H4.1665C3.70627 16.6667 3.33317 16.2936 3.33317 15.8333V14.3834C3.33317 13.1583 4.08238 12.0578 5.22219 11.6086C5.65038 11.4399 5.86072 10.956 5.69198 10.5278ZM7.49984 3.33333C6.57936 3.33333 5.83317 4.07952 5.83317 5V6.66666C5.83317 7.58714 6.57936 8.33333 7.49984 8.33333C8.42031 8.33333 9.1665 7.58714 9.1665 6.66666V5C9.1665 4.07952 8.42031 3.33333 7.49984 3.33333ZM17.4998 5.83333H15.8332V4.16666C15.8332 3.70643 15.4601 3.33333 14.9998 3.33333C14.5396 3.33333 14.1665 3.70643 14.1665 4.16666V5.83333H12.4998C12.0396 5.83333 11.6665 6.20643 11.6665 6.66666C11.6665 7.1269 12.0396 7.5 12.4998 7.5H14.1665V9.16666C14.1665 9.6269 14.5396 10 14.9998 10C15.4601 10 15.8332 9.6269 15.8332 9.16666V7.5H17.4998C17.9601 7.5 18.3332 7.1269 18.3332 6.66666C18.3332 6.20643 17.9601 5.83333 17.4998 5.83333Z" fill="#00A970"/>
</svg>
