<svg width="24" height="24" viewBox="0 0 24 24" fill="none" xmlns="http://www.w3.org/2000/svg">
<path fill-rule="evenodd" clip-rule="evenodd" d="M2 6C2 4.34315 3.34315 3 5 3H17C18.6569 3 20 4.34315 20 6V7.17071C21.1652 7.58254 22 8.69378 22 10V18C22 19.6569 20.6569 21 19 21H5C3.34315 21 2 19.6569 2 18V6ZM5 5H17C17.5523 5 18 5.44772 18 6V7H4V6C4 5.44772 4.44772 5 5 5ZM4 9V18C4 18.5523 4.44772 19 5 19H19C19.5523 19 20 18.5523 20 18V10C20 9.44771 19.5523 9 19 9H4Z" fill="#00A970"/>
<path d="M18 14C18 14.5523 17.5523 15 17 15C16.4477 15 16 14.5523 16 14C16 13.4477 16.4477 13 17 13C17.5523 13 18 13.4477 18 14Z" fill="#00A970"/>
</svg>
