<svg width="80" height="80" viewBox="0 0 80 80" fill="none" xmlns="http://www.w3.org/2000/svg">
<path d="M71.9999 40.0001C71.9999 57.6732 57.673 72.0001 39.9999 72.0001C22.3268 72.0001 7.99994 57.6732 7.99994 40.0001C7.99994 22.327 22.3268 8.00012 39.9999 8.00012C57.673 8.00012 71.9999 22.327 71.9999 40.0001Z" fill="#00A970"/>
<path fill-rule="evenodd" clip-rule="evenodd" d="M39.9999 69.5001C56.2923 69.5001 69.4999 56.2925 69.4999 40.0001C69.4999 23.7077 56.2923 10.5001 39.9999 10.5001C23.7075 10.5001 10.4999 23.7077 10.4999 40.0001C10.4999 56.2925 23.7075 69.5001 39.9999 69.5001ZM39.9999 72.0001C57.673 72.0001 71.9999 57.6732 71.9999 40.0001C71.9999 22.327 57.673 8.00012 39.9999 8.00012C22.3268 8.00012 7.99994 22.327 7.99994 40.0001C7.99994 57.6732 22.3268 72.0001 39.9999 72.0001Z" fill="black"/>
<path fill-rule="evenodd" clip-rule="evenodd" d="M29.3975 36.5951C28.8308 36.0231 27.912 36.0231 27.3453 36.5951L23.9251 40.0473C23.3585 40.6193 23.3585 41.5467 23.9251 42.1187L33.5017 51.7849C34.4462 52.7382 35.9775 52.7382 36.9219 51.7849L56.0751 32.4524C56.6418 31.8804 56.6418 30.9531 56.0751 30.3811L52.6549 26.9289C52.0882 26.3569 51.1695 26.3569 50.6028 26.9289L35.5538 42.1187C35.365 42.3093 35.0587 42.3093 34.8698 42.1187L29.3975 36.5951Z" fill="white"/>
<path fill-rule="evenodd" clip-rule="evenodd" d="M49.7148 26.0491C50.7705 24.9835 52.4871 24.9835 53.5429 26.0491L56.9631 29.5013C58.0125 30.5605 58.0125 32.273 56.9631 33.3322L37.8099 52.6647C36.3764 54.1116 34.0473 54.1116 32.6137 52.6647L23.0371 42.9984C21.9878 41.9392 21.9878 40.2268 23.0371 39.1676L26.4574 35.7153C27.5131 34.6497 29.2297 34.6497 30.2855 35.7153L35.2118 40.6878L49.7148 26.0491ZM51.7669 27.8086C51.6893 27.7303 51.5684 27.7303 51.4908 27.8086L36.4418 42.9984C35.7639 43.6827 34.6598 43.6827 33.9818 42.9984L28.5095 37.4749C28.4319 37.3965 28.3109 37.3965 28.2333 37.4749L24.8131 40.9271C24.7291 41.0119 24.7291 41.1541 24.8131 41.2389L34.3897 50.9051C34.8451 51.3648 35.5786 51.3648 36.0339 50.9051L55.1871 31.5727C55.2711 31.4879 55.2711 31.3456 55.1871 31.2608L51.7669 27.8086Z" fill="black"/>
</svg>
