<svg width="32" height="32" viewBox="0 0 32 32" fill="none" xmlns="http://www.w3.org/2000/svg">
<path fill-rule="evenodd" clip-rule="evenodd" d="M28.8 16C28.8 19.3948 27.4514 22.6505 25.051 25.051C22.6505 27.4514 19.3948 28.8 16 28.8C12.6052 28.8 9.34951 27.4514 6.94905 25.051C4.54858 22.6505 3.20001 19.3948 3.20001 16C3.20001 12.6052 4.54858 9.34951 6.94905 6.94905C9.34951 4.54858 12.6052 3.20001 16 3.20001C19.3948 3.20001 22.6505 4.54858 25.051 6.94905C27.4514 9.34951 28.8 12.6052 28.8 16ZM19.2 11.2C19.2 12.0487 18.8629 12.8626 18.2628 13.4628C17.6626 14.0629 16.8487 14.4 16 14.4C15.1513 14.4 14.3374 14.0629 13.7373 13.4628C13.1372 12.8626 12.8 12.0487 12.8 11.2C12.8 10.3513 13.1372 9.53739 13.7373 8.93727C14.3374 8.33715 15.1513 8.00001 16 8.00001C16.8487 8.00001 17.6626 8.33715 18.2628 8.93727C18.8629 9.53739 19.2 10.3513 19.2 11.2ZM16 17.6C14.4682 17.5997 12.9685 18.0392 11.6791 18.8663C10.3897 19.6933 9.36488 20.8732 8.72641 22.2656C9.6267 23.313 10.7428 24.1532 11.9983 24.7288C13.2538 25.3043 14.6189 25.6015 16 25.6C17.3811 25.6015 18.7462 25.3043 20.0017 24.7288C21.2572 24.1532 22.3733 23.313 23.2736 22.2656C22.6351 20.8732 21.6103 19.6933 20.3209 18.8663C19.0316 18.0392 17.5318 17.5997 16 17.6Z" fill="#00A970"/>
</svg>
