<svg width="20" height="21" viewBox="0 0 20 21" fill="none" xmlns="http://www.w3.org/2000/svg">
<path fill-rule="evenodd" clip-rule="evenodd" d="M10 18.8333C5.39765 18.8333 1.66669 15.1024 1.66669 10.5C1.66669 5.89763 5.39765 2.16667 10 2.16667C14.6024 2.16667 18.3334 5.89763 18.3334 10.5C18.3334 15.1024 14.6024 18.8333 10 18.8333ZM10 8.83334C9.53978 8.83334 9.16669 9.20643 9.16669 9.66667V13.8333C9.16669 14.2936 9.53978 14.6667 10 14.6667C10.4603 14.6667 10.8334 14.2936 10.8334 13.8333V9.66667C10.8334 9.20643 10.4603 8.83334 10 8.83334ZM10.8334 7.16667C10.8334 7.62691 10.4603 8.00001 10 8.00001C9.53978 8.00001 9.16669 7.62691 9.16669 7.16667C9.16669 6.70643 9.53978 6.33334 10 6.33334C10.4603 6.33334 10.8334 6.70643 10.8334 7.16667Z" fill="#EA3654"/>
</svg>
