<svg width="18" height="20" viewBox="0 0 18 20" fill="none" xmlns="http://www.w3.org/2000/svg">
<path d="M17.1627 14.152C16.408 13.341 14.9959 12.1211 14.9959 8.125C14.9959 5.08984 12.8678 2.66016 9.99827 2.06406V1.25C9.99827 0.559766 9.43889 0 8.74905 0C8.05921 0 7.49983 0.559766 7.49983 1.25V2.06406C4.6303 2.66016 2.50218 5.08984 2.50218 8.125C2.50218 12.1211 1.09007 13.341 0.335379 14.152C0.101004 14.4039 -0.00290268 14.7051 -0.000949555 15C0.00334732 15.6406 0.506082 16.25 1.25296 16.25H16.2451C16.992 16.25 17.4951 15.6406 17.4991 15C17.501 14.7051 17.3971 14.4035 17.1627 14.152ZM2.63694 14.375C3.46585 13.2824 4.3721 11.4715 4.37639 8.14766C4.37639 8.13984 4.37405 8.13281 4.37405 8.125C4.37405 5.70859 6.33264 3.75 8.74905 3.75C11.1655 3.75 13.1241 5.70859 13.1241 8.125C13.1241 8.13281 13.1217 8.13984 13.1217 8.14766C13.126 11.4719 14.0323 13.2828 14.8612 14.375H2.63694ZM8.74905 20C10.1287 20 11.2479 18.8809 11.2479 17.5H6.25022C6.25022 18.8809 7.36936 20 8.74905 20Z" fill="#6A768C"/>
</svg>
