<svg width="64" height="64" viewBox="0 0 64 64" fill="none" xmlns="http://www.w3.org/2000/svg">
<path d="M16 7.6C16 6.71634 16.7163 6 17.6 6H46.4C47.2837 6 48 6.71634 48 7.6V56.4C48 57.2837 47.2837 58 46.4 58H17.6C16.7163 58 16 57.2837 16 56.4V7.6Z" fill="black"/>
<path fill-rule="evenodd" clip-rule="evenodd" d="M15 7.6C15 6.16406 16.1641 5 17.6 5H46.4C47.8359 5 49 6.16406 49 7.6V56.4C49 57.8359 47.8359 59 46.4 59H17.6C16.1641 59 15 57.8359 15 56.4V7.6ZM17.6 7C17.2686 7 17 7.26863 17 7.6V56.4C17 56.7314 17.2686 57 17.6 57H46.4C46.7314 57 47 56.7314 47 56.4V7.6C47 7.26863 46.7314 7 46.4 7H17.6Z" fill="black"/>
<path d="M16 7.6C16 6.71634 16.7163 6 17.6 6H44.4C45.2837 6 46 6.71634 46 7.6V56.4C46 57.2837 45.2837 58 44.4 58H17.6C16.7163 58 16 57.2837 16 56.4V7.6Z" fill="#00A970"/>
<path fill-rule="evenodd" clip-rule="evenodd" d="M15 7.6C15 6.16406 16.1641 5 17.6 5H44.4C45.8359 5 47 6.16406 47 7.6V56.4C47 57.8359 45.8359 59 44.4 59H17.6C16.1641 59 15 57.8359 15 56.4V7.6ZM17.6 7C17.2686 7 17 7.26863 17 7.6V56.4C17 56.7314 17.2686 57 17.6 57H44.4C44.7314 57 45 56.7314 45 56.4V7.6C45 7.26863 44.7314 7 44.4 7H17.6Z" fill="black"/>
<path d="M34.0005 51C34.0005 52.6569 32.6573 54 31.0005 54C29.3436 54 28.0005 52.6569 28.0005 51C28.0005 49.3431 29.3436 48 31.0005 48C32.6573 48 34.0005 49.3431 34.0005 51Z" fill="white"/>
<path fill-rule="evenodd" clip-rule="evenodd" d="M31.0002 48.8002C29.7852 48.8002 28.8002 49.7852 28.8002 51.0002C28.8002 52.2152 29.7852 53.2002 31.0002 53.2002C32.2152 53.2002 33.2002 52.2152 33.2002 51.0002C33.2002 49.7852 32.2152 48.8002 31.0002 48.8002ZM27.2002 51.0002C27.2002 48.9015 28.9015 47.2002 31.0002 47.2002C33.0989 47.2002 34.8002 48.9015 34.8002 51.0002C34.8002 53.0989 33.0989 54.8002 31.0002 54.8002C28.9015 54.8002 27.2002 53.0989 27.2002 51.0002Z" fill="black"/>
<path fill-rule="evenodd" clip-rule="evenodd" d="M22.0005 10C20.8959 10 20.0005 10.8954 20.0005 12V47C20.0005 48.1046 20.8959 49 22.0005 49H25.7684C25.9616 49 26.1264 48.8632 26.1774 48.6768C26.7575 46.5575 28.6971 45 31.0005 45C33.3039 45 35.2435 46.5575 35.8235 48.6768C35.8745 48.8632 36.0393 49 36.2325 49H40.0083C41.1129 49 42.0083 48.1046 42.0083 47V12C42.0083 10.8954 41.1129 10 40.0083 10H22.0005Z" fill="white"/>
<path fill-rule="evenodd" clip-rule="evenodd" d="M22.0002 10.8002C21.3375 10.8002 20.8002 11.3375 20.8002 12.0002V47.0002C20.8002 47.6629 21.3375 48.2002 22.0002 48.2002H25.4852C26.2425 45.8786 28.4244 44.2002 31.0002 44.2002C33.576 44.2002 35.7579 45.8786 36.5152 48.2002H40.008C40.6707 48.2002 41.208 47.6629 41.208 47.0002V12.0002C41.208 11.3375 40.6707 10.8002 40.008 10.8002H22.0002ZM19.2002 12.0002C19.2002 10.4538 20.4538 9.2002 22.0002 9.2002H40.008C41.5544 9.2002 42.808 10.4538 42.808 12.0002V47.0002C42.808 48.5466 41.5544 49.8002 40.008 49.8002H36.2322C35.647 49.8002 35.1892 49.3909 35.0516 48.8882C34.5643 47.1077 32.9339 45.8002 31.0002 45.8002C29.0665 45.8002 27.4361 47.1077 26.9488 48.8882C26.8112 49.3909 26.3534 49.8002 25.7681 49.8002H22.0002C20.4538 49.8002 19.2002 48.5466 19.2002 47.0002V12.0002Z" fill="black"/>
<path d="M26.6025 34.6665H29.0355V28.3403L26.6025 27.1147V34.6665Z" fill="black"/>
<path d="M33.6986 24.8417L30.1567 23.9599C29.3809 23.6889 29.0357 23.4422 29.0357 22.5806V20H26.5986V22.6615C26.5986 24.3887 26.9276 25.6588 29.4947 26.3019L33.0406 27.1837H33.073C33.8245 27.4466 34.1616 27.6974 34.1616 28.5508V34.5979H36.5986V28.4983C36.5986 25.8327 35.4085 25.2624 33.7026 24.8579" fill="black"/>
</svg>
