<svg width="24" height="24" viewBox="0 0 24 24" fill="none" xmlns="http://www.w3.org/2000/svg">
<path d="M2.25 7.125C2.25 6.50368 2.75368 6 3.375 6L20.625 6C21.2463 6 21.75 6.50368 21.75 7.125L21.75 16.875C21.75 17.4963 21.2463 18 20.625 18H3.375C2.75368 18 2.25 17.4963 2.25 16.875L2.25 7.125Z" fill="black"/>
<path fill-rule="evenodd" clip-rule="evenodd" d="M1.875 7.125C1.875 6.29657 2.54657 5.625 3.375 5.625L20.625 5.625C21.4534 5.625 22.125 6.29657 22.125 7.125L22.125 16.875C22.125 17.7034 21.4534 18.375 20.625 18.375H3.375C2.54657 18.375 1.875 17.7034 1.875 16.875L1.875 7.125ZM3.375 6.375C2.96079 6.375 2.625 6.71079 2.625 7.125L2.625 16.875C2.625 17.2892 2.96079 17.625 3.375 17.625H20.625C21.0392 17.625 21.375 17.2892 21.375 16.875L21.375 7.125C21.375 6.71079 21.0392 6.375 20.625 6.375L3.375 6.375Z" fill="black"/>
<path d="M2.25 7.125C2.25 6.50368 2.75368 6 3.375 6L19.125 6C19.7463 6 20.25 6.50368 20.25 7.125L20.25 16.875C20.25 17.4963 19.7463 18 19.125 18H3.375C2.75368 18 2.25 17.4963 2.25 16.875L2.25 7.125Z" fill="#00A970"/>
<path fill-rule="evenodd" clip-rule="evenodd" d="M1.875 7.125C1.875 6.29657 2.54657 5.625 3.375 5.625L19.125 5.625C19.9534 5.625 20.625 6.29657 20.625 7.125L20.625 16.875C20.625 17.7034 19.9534 18.375 19.125 18.375H3.375C2.54657 18.375 1.875 17.7034 1.875 16.875L1.875 7.125ZM3.375 6.375C2.96079 6.375 2.625 6.71079 2.625 7.125L2.625 16.875C2.625 17.2892 2.96079 17.625 3.375 17.625H19.125C19.5392 17.625 19.875 17.2892 19.875 16.875L19.875 7.125C19.875 6.71079 19.5392 6.375 19.125 6.375L3.375 6.375Z" fill="black"/>
<path fill-rule="evenodd" clip-rule="evenodd" d="M13.6875 8.25C13.6875 7.93934 13.9393 7.6875 14.25 7.6875H17.25C17.5607 7.6875 17.8125 7.93934 17.8125 8.25C17.8125 8.56066 17.5607 8.8125 17.25 8.8125H14.25C13.9393 8.8125 13.6875 8.56066 13.6875 8.25Z" fill="white"/>
<path fill-rule="evenodd" clip-rule="evenodd" d="M4.20001 14.25C4.20001 13.6701 4.67011 13.2 5.25001 13.2H19.875V13.8H5.25001C5.00148 13.8 4.80001 14.0015 4.80001 14.25V17.625H4.20001V14.25Z" fill="white"/>
<path fill-rule="evenodd" clip-rule="evenodd" d="M7.05001 6.375V9.75C7.05001 9.99853 7.25148 10.2 7.50001 10.2H12.75C13.3299 10.2 13.8 10.6701 13.8 11.25V17.625H13.2V11.25C13.2 11.0015 12.9985 10.8 12.75 10.8H7.50001C6.92011 10.8 6.45001 10.3299 6.45001 9.75V6.375H7.05001Z" fill="#FFC300"/>
</svg>
