<svg width="20" height="20" viewBox="0 0 20 20" fill="none" xmlns="http://www.w3.org/2000/svg">
<path fill-rule="evenodd" clip-rule="evenodd" d="M3.33332 7.49996C3.33332 7.9602 2.96023 8.33329 2.49999 8.33329C2.03975 8.33329 1.66666 7.9602 1.66666 7.49996V4.99996C1.66666 3.15901 3.15904 1.66663 4.99999 1.66663H7.49999C7.96023 1.66663 8.33332 2.03972 8.33332 2.49996C8.33332 2.9602 7.96023 3.33329 7.49999 3.33329H4.99999C4.07952 3.33329 3.33332 4.07948 3.33332 4.99996V7.49996ZM12.5 16.6666H15C15.9205 16.6666 16.6667 15.9204 16.6667 15V12.5C16.6667 12.0397 17.0398 11.6666 17.5 11.6666C17.9602 11.6666 18.3333 12.0397 18.3333 12.5V15C18.3333 16.8409 16.8409 18.3333 15 18.3333H12.5C12.0398 18.3333 11.6667 17.9602 11.6667 17.5C11.6667 17.0397 12.0398 16.6666 12.5 16.6666ZM7.49999 18.3333H4.99999C3.15904 18.3333 1.66666 16.8409 1.66666 15V12.5C1.66666 12.0397 2.03975 11.6666 2.49999 11.6666C2.96023 11.6666 3.33332 12.0397 3.33332 12.5V15C3.33332 15.9204 4.07952 16.6666 4.99999 16.6666H7.49999C7.96023 16.6666 8.33332 17.0397 8.33332 17.5C8.33332 17.9602 7.96023 18.3333 7.49999 18.3333ZM16.6667 4.99996V7.49996C16.6667 7.9602 17.0398 8.33329 17.5 8.33329C17.9602 8.33329 18.3333 7.9602 18.3333 7.49996V4.99996C18.3333 3.15901 16.8409 1.66663 15 1.66663H12.5C12.0398 1.66663 11.6667 2.03972 11.6667 2.49996C11.6667 2.9602 12.0398 3.33329 12.5 3.33329H15C15.9205 3.33329 16.6667 4.07948 16.6667 4.99996Z" fill="#00A970"/>
</svg>
