<svg width="65" height="64" viewBox="0 0 65 64" fill="none" xmlns="http://www.w3.org/2000/svg">
<rect x="0.666687" width="64" height="64" rx="16" fill="white"/>
<g clip-path="url(#clip0_1456_14657)">
<path d="M44.486 32.9059C44.5738 33.0314 44.7596 33.0314 44.8474 32.9059L47.9237 28.5111C48.0261 28.3649 47.9215 28.1641 47.743 28.1641H41.5903C41.4119 28.1641 41.3073 28.3649 41.4096 28.5111L44.486 32.9059Z" fill="black"/>
<path fill-rule="evenodd" clip-rule="evenodd" d="M44.0764 33.1926C44.3632 33.6025 44.9702 33.6025 45.257 33.1926L48.3334 28.7979C48.6677 28.3203 48.326 27.6641 47.743 27.6641H41.5904C41.0074 27.6641 40.6657 28.3203 41 28.7979L44.0764 33.1926ZM44.6667 32.2922L42.127 28.6641H47.2064L44.6667 32.2922Z" fill="black"/>
<path d="M20.486 32.9059C20.5738 33.0314 20.7596 33.0314 20.8474 32.9059L23.9237 28.5111C24.0261 28.3649 23.9215 28.1641 23.743 28.1641H17.5903C17.4119 28.1641 17.3073 28.3649 17.4096 28.5111L20.486 32.9059Z" fill="black"/>
<path fill-rule="evenodd" clip-rule="evenodd" d="M20.0764 33.1926C20.3632 33.6025 20.9702 33.6025 21.257 33.1926L24.3334 28.7979C24.6677 28.3203 24.326 27.6641 23.743 27.6641H17.5904C17.0074 27.6641 16.6657 28.3203 17 28.7979L20.0764 33.1926ZM20.6667 32.2922L18.127 28.6641H23.2064L20.6667 32.2922Z" fill="black"/>
<path fill-rule="evenodd" clip-rule="evenodd" d="M22.6667 21C22.6667 20.4477 23.1144 20 23.6667 20L41.6667 20C42.219 20 42.6667 20.4477 42.6667 21C42.6667 21.5523 42.219 22 41.6667 22L23.6667 22C23.1144 22 22.6667 21.5523 22.6667 21Z" fill="black"/>
<path d="M25.6667 21H39.6667V42.2C39.6667 42.6418 39.3085 43 38.8667 43H26.4667C26.0249 43 25.6667 42.6418 25.6667 42.2L25.6667 21Z" fill="#00A970"/>
<path fill-rule="evenodd" clip-rule="evenodd" d="M25.1667 20.5L40.1667 20.5V42.2C40.1667 42.918 39.5847 43.5 38.8667 43.5H26.4667C25.7487 43.5 25.1667 42.918 25.1667 42.2L25.1667 20.5ZM26.1667 21.5L26.1667 42.2C26.1667 42.3657 26.301 42.5 26.4667 42.5H38.8667C39.0324 42.5 39.1667 42.3657 39.1667 42.2V21.5H26.1667Z" fill="black"/>
<path fill-rule="evenodd" clip-rule="evenodd" d="M30.668 43L26.5417 43C26.0584 43 25.6667 42.6082 25.6667 42.125L25.6667 38C25.6671 38 25.6675 38 25.668 38C28.4294 38 30.668 40.2386 30.668 43C30.668 43 30.668 43 30.668 43Z" fill="white"/>
<path fill-rule="evenodd" clip-rule="evenodd" d="M31.168 43.5L26.5417 43.5C25.7823 43.5 25.1667 42.8844 25.1667 42.125L25.1667 37.5L25.668 37.5C28.7055 37.5 31.168 39.9624 31.168 43L31.168 43.5ZM30.1405 42.5C29.9099 40.4138 28.2531 38.7574 26.1667 38.5273L26.1667 42.125C26.1667 42.3321 26.3346 42.5 26.5417 42.5L30.1405 42.5Z" fill="black"/>
<path fill-rule="evenodd" clip-rule="evenodd" d="M39.666 38L39.666 42.125C39.666 42.6082 39.2743 43 38.791 43L34.6658 43C34.6658 40.2386 36.9045 38 39.666 38Z" fill="white"/>
<path fill-rule="evenodd" clip-rule="evenodd" d="M39.166 38.5275C37.0801 38.758 35.4239 40.4142 35.1933 42.5L38.791 42.5C38.9981 42.5 39.166 42.3321 39.166 42.125L39.166 38.5275ZM40.166 42.125C40.166 42.8844 39.5504 43.5 38.791 43.5L34.1658 43.5L34.1658 43C34.1658 39.9624 36.6284 37.5 39.666 37.5L40.166 37.5L40.166 42.125Z" fill="black"/>
<path d="M28.1641 31C28.1641 28.5147 30.1788 26.5 32.6641 26.5C35.1494 26.5 37.1641 28.5147 37.1641 31C37.1641 33.4853 35.1494 35.5 32.6641 35.5C30.1788 35.5 28.1641 33.4853 28.1641 31Z" fill="white"/>
<path fill-rule="evenodd" clip-rule="evenodd" d="M27.7641 31C27.7641 28.2938 29.9579 26.1 32.6641 26.1C35.3703 26.1 37.5641 28.2938 37.5641 31C37.5641 33.7062 35.3703 35.9 32.6641 35.9C29.9579 35.9 27.7641 33.7062 27.7641 31ZM32.6641 26.9C30.3997 26.9 28.5641 28.7356 28.5641 31C28.5641 33.2644 30.3997 35.1 32.6641 35.1C34.9285 35.1 36.7641 33.2644 36.7641 31C36.7641 28.7356 34.9285 26.9 32.6641 26.9Z" fill="black"/>
<path d="M31.1661 33.2826H31.9644V31.2197L31.1661 30.8201V33.2826Z" fill="black"/>
<path d="M33.4938 30.0788L32.3316 29.7913C32.0771 29.7029 31.9638 29.6225 31.9638 29.3415V28.5H31.1641V29.3679C31.1641 29.9311 31.2721 30.3452 32.1144 30.555L33.2779 30.8425H33.2885C33.5351 30.9282 33.6457 31.01 33.6457 31.2883V33.2602H34.4454V31.2712C34.4454 30.402 34.0549 30.216 33.4951 30.0841" fill="black"/>
</g>
<defs>
<clipPath id="clip0_1456_14657">
<rect width="32" height="32" fill="white" transform="translate(16.6667 16)"/>
</clipPath>
</defs>
</svg>
