<svg width="16" height="16" viewBox="0 0 16 16" fill="none" xmlns="http://www.w3.org/2000/svg">
<path fill-rule="evenodd" clip-rule="evenodd" d="M13.8018 1.78022L14.2251 2.20865C14.8096 2.80019 14.8145 3.75434 14.236 4.3398L6.95185 11.7115L4.44251 12.4341C4.12699 12.525 3.79578 12.339 3.70275 12.0187C3.6707 11.9084 3.67032 11.7915 3.70164 11.6816L4.43164 9.12092L11.6959 1.76923C12.2744 1.18377 13.2173 1.18869 13.8018 1.78022ZM5.14643 10.9746L6.32086 10.6364L13.3893 3.48295C13.505 3.36585 13.504 3.17502 13.3871 3.05672L12.9638 2.62829C12.8469 2.50998 12.6583 2.509 12.5426 2.62609L5.49236 9.76116L5.14643 10.9746ZM6.72153 3.15478C6.72153 2.82016 6.45348 2.54889 6.12284 2.54889H3.72809C2.40551 2.54889 1.33334 3.63395 1.33334 4.97245V12.2431C1.33334 13.5816 2.40551 14.6667 3.72809 14.6667H10.9123C12.2349 14.6667 13.3071 13.5816 13.3071 12.2431V9.81956C13.3071 9.48493 13.039 9.21367 12.7084 9.21367C12.3777 9.21367 12.1097 9.48493 12.1097 9.81956V12.2431C12.1097 12.9124 11.5736 13.4549 10.9123 13.4549H3.72809C3.0668 13.4549 2.53072 12.9124 2.53072 12.2431V4.97245C2.53072 4.3032 3.0668 3.76067 3.72809 3.76067H6.12284C6.45348 3.76067 6.72153 3.4894 6.72153 3.15478Z" fill="#00A970"/>
</svg>
