<svg width="80" height="80" viewBox="0 0 80 80" fill="none" xmlns="http://www.w3.org/2000/svg">
<path fill-rule="evenodd" clip-rule="evenodd" d="M23.75 22.0833C23.75 14.0292 31.0254 7.5 40 7.5C48.9746 7.5 56.25 14.0292 56.25 22.0833V30C56.25 31.3807 55.1307 32.5 53.75 32.5H51.7857C50.405 32.5 49.2857 31.3807 49.2857 30V22.0833C49.2857 17.481 45.1284 13.75 40 13.75C34.8716 13.75 30.7143 17.481 30.7143 22.0833V30C30.7143 31.3807 29.595 32.5 28.2143 32.5H26.25C24.8693 32.5 23.75 31.3807 23.75 30V22.0833Z" fill="black"/>
<path fill-rule="evenodd" clip-rule="evenodd" d="M22.5 22.0833C22.5 13.215 30.4657 6.25 40 6.25C49.5343 6.25 57.5 13.215 57.5 22.0833V30C57.5 32.0711 55.8211 33.75 53.75 33.75H51.7857C49.7146 33.75 48.0357 32.0711 48.0357 30V22.0833C48.0357 18.2951 44.5687 15 40 15C35.4313 15 31.9643 18.2951 31.9643 22.0833V30C31.9643 32.0711 30.2854 33.75 28.2143 33.75H26.25C24.1789 33.75 22.5 32.0711 22.5 30V22.0833ZM40 8.75C31.5851 8.75 25 14.8433 25 22.0833V30C25 30.6904 25.5596 31.25 26.25 31.25H28.2143C28.9046 31.25 29.4643 30.6904 29.4643 30V22.0833C29.4643 16.6668 34.3119 12.5 40 12.5C45.6881 12.5 50.5357 16.6668 50.5357 22.0833V30C50.5357 30.6904 51.0954 31.25 51.7857 31.25H53.75C54.4404 31.25 55 30.6904 55 30V22.0833C55 14.8433 48.4149 8.75 40 8.75Z" fill="black"/>
<path fill-rule="evenodd" clip-rule="evenodd" d="M23.75 22.0833C23.75 14.0292 30.4657 7.5 38.75 7.5C47.0343 7.5 53.75 14.0292 53.75 22.0833V30C53.75 31.3807 52.6307 32.5 51.25 32.5H49.8214C48.4407 32.5 47.3214 31.3807 47.3214 30V22.0833C47.3214 17.481 43.4839 13.75 38.75 13.75C34.0161 13.75 30.1786 17.481 30.1786 22.0833V30C30.1786 31.3807 29.0593 32.5 27.6786 32.5H26.25C24.8693 32.5 23.75 31.3807 23.75 30V22.0833Z" fill="white"/>
<path fill-rule="evenodd" clip-rule="evenodd" d="M22.5 22.0833C22.5 13.3059 29.8088 6.25 38.75 6.25C47.6912 6.25 55 13.3059 55 22.0833V30C55 32.0711 53.3211 33.75 51.25 33.75H49.8214C47.7504 33.75 46.0714 32.0711 46.0714 30V22.0833C46.0714 18.2043 42.8269 15 38.75 15C34.6731 15 31.4286 18.2043 31.4286 22.0833V30C31.4286 32.0711 29.7496 33.75 27.6786 33.75H26.25C24.1789 33.75 22.5 32.0711 22.5 30V22.0833ZM38.75 8.75C31.1227 8.75 25 14.7525 25 22.0833V30C25 30.6904 25.5596 31.25 26.25 31.25H27.6786C28.3689 31.25 28.9286 30.6904 28.9286 30V22.0833C28.9286 16.7576 33.3592 12.5 38.75 12.5C44.1408 12.5 48.5714 16.7576 48.5714 22.0833V30C48.5714 30.6904 49.1311 31.25 49.8214 31.25H51.25C51.9404 31.25 52.5 30.6904 52.5 30V22.0833C52.5 14.7525 46.3773 8.75 38.75 8.75Z" fill="black"/>
<path d="M17.5 33.75C17.5 31.6789 19.1789 30 21.25 30H58.75C60.8211 30 62.5 31.6789 62.5 33.75V66.25C62.5 68.3211 60.8211 70 58.75 70H21.25C19.1789 70 17.5 68.3211 17.5 66.25V33.75Z" fill="black"/>
<path fill-rule="evenodd" clip-rule="evenodd" d="M16.25 33.75C16.25 30.9886 18.4886 28.75 21.25 28.75H58.75C61.5114 28.75 63.75 30.9886 63.75 33.75V66.25C63.75 69.0114 61.5114 71.25 58.75 71.25H21.25C18.4886 71.25 16.25 69.0114 16.25 66.25V33.75ZM21.25 31.25C19.8693 31.25 18.75 32.3693 18.75 33.75V66.25C18.75 67.6307 19.8693 68.75 21.25 68.75H58.75C60.1307 68.75 61.25 67.6307 61.25 66.25V33.75C61.25 32.3693 60.1307 31.25 58.75 31.25H21.25Z" fill="black"/>
<path d="M17.5 33.75C17.5 31.6789 19.1789 30 21.25 30H53.75C55.8211 30 57.5 31.6789 57.5 33.75V66.25C57.5 68.3211 55.8211 70 53.75 70H21.25C19.1789 70 17.5 68.3211 17.5 66.25V33.75Z" fill="#A0A2A1"/>
<path fill-rule="evenodd" clip-rule="evenodd" d="M16.25 33.75C16.25 30.9886 18.4886 28.75 21.25 28.75H53.75C56.5114 28.75 58.75 30.9886 58.75 33.75V66.25C58.75 69.0114 56.5114 71.25 53.75 71.25H21.25C18.4886 71.25 16.25 69.0114 16.25 66.25V33.75ZM21.25 31.25C19.8693 31.25 18.75 32.3693 18.75 33.75V66.25C18.75 67.6307 19.8693 68.75 21.25 68.75H53.75C55.1307 68.75 56.25 67.6307 56.25 66.25V33.75C56.25 32.3693 55.1307 31.25 53.75 31.25H21.25Z" fill="black"/>
<path d="M41.1314 56.7199C41.3158 57.5625 40.6759 58.3618 39.8083 58.3618H35.0798C34.2122 58.3618 33.5723 57.5625 33.7567 56.7199L35.5062 48.8988C35.5617 48.6508 35.4409 48.3997 35.2286 48.26C33.948 47.4181 33.1654 45.9005 33.453 44.2113C33.7241 42.5695 35.0581 41.2192 36.7066 40.9276C39.266 40.4739 41.5002 42.429 41.5002 44.9027C41.5002 46.3062 40.7673 47.5338 39.66 48.2602C39.4474 48.3997 39.3264 48.651 39.3819 48.8992L41.1314 56.7199Z" fill="black"/>
</svg>
