<svg width="160" height="160" viewBox="0 0 160 160" fill="none" xmlns="http://www.w3.org/2000/svg">
<g clip-path="url(#clip0_1457_45766)">
<g clip-path="url(#clip1_1457_45766)" filter="url(#filter0_d_1457_45766)">
<path d="M118.28 33.6525H114.797L79.9996 38.657L45.2021 33.6525H41.2166C36.9195 33.6525 33.436 30.1893 33.436 25.9171C33.4358 21.645 36.9195 18.1818 41.2166 18.1818H118.28C122.577 18.1818 126.06 21.645 126.06 25.9171C126.06 30.1893 122.577 33.6525 118.28 33.6525Z" fill="#B9BABA"/>
<path d="M114.294 43.3631V33.6525H45.2021V43.3631C45.2021 58.4269 54.8868 71.2401 68.4034 75.9884C70.2689 76.6437 71.5163 78.3966 71.5163 80.3634C71.5163 82.3304 70.2689 84.0833 68.4034 84.7384C54.887 89.4867 45.2021 102.3 45.2021 117.364V127.074H114.293V117.364C114.293 102.3 104.609 89.4867 91.0921 84.7384C89.2266 84.083 87.9792 82.3302 87.9792 80.3634H88.4826C88.4826 78.3963 89.2266 76.6437 91.0921 75.9884C104.609 71.2403 114.294 58.4269 114.294 43.3631Z" fill="white"/>
<path d="M118.28 142.545H41.2166C36.9195 142.545 33.436 139.082 33.436 134.81C33.436 130.538 36.9195 127.075 41.2166 127.075H45.2026L80.0001 122.07L114.797 127.075H118.28C122.577 127.075 126.061 130.538 126.061 134.81C126.06 139.082 122.577 142.545 118.28 142.545Z" fill="#B9BABA"/>
<path d="M96.7562 99.9357H93.0913C89.4058 99.9357 85.758 97.2851 85.1552 93.6705L83.6599 84.7041C82.8988 80.1404 86.4396 75.9886 91.0926 75.9886C100.122 72.8167 107.436 66.0425 111.301 57.4059H48.1955C52.06 66.0428 59.3742 72.8167 68.4036 75.9886C73.0566 75.9886 76.5974 80.1404 75.8363 84.7041L74.341 93.6705C73.7382 97.2851 70.5936 99.9357 66.9083 99.9357H62.74C53.1319 99.9357 45.255 107.622 45.2031 117.173C45.2029 117.237 45.2026 117.301 45.2026 117.364V127.075H114.294V117.364C114.294 117.301 114.294 117.237 114.293 117.173C114.241 107.622 106.364 99.9357 96.7562 99.9357Z" fill="#E1E2E2"/>
</g>
<path d="M52.3638 130.909C52.3638 143.762 41.9443 154.182 29.0911 154.182C16.2379 154.182 5.81836 143.762 5.81836 130.909C5.81836 118.056 16.2379 107.636 29.0911 107.636C41.9443 107.636 52.3638 118.056 52.3638 130.909Z" fill="#FFC300"/>
<path fill-rule="evenodd" clip-rule="evenodd" d="M29.0911 152.364C40.9401 152.364 50.5456 142.758 50.5456 130.909C50.5456 119.06 40.9401 109.455 29.0911 109.455C17.2421 109.455 7.63654 119.06 7.63654 130.909C7.63654 142.758 17.2421 152.364 29.0911 152.364ZM29.0911 154.182C41.9443 154.182 52.3638 143.762 52.3638 130.909C52.3638 118.056 41.9443 107.636 29.0911 107.636C16.2379 107.636 5.81836 118.056 5.81836 130.909C5.81836 143.762 16.2379 154.182 29.0911 154.182Z" fill="black"/>
<path d="M25.1737 117.532C25.1286 116.901 25.6288 116.364 26.2619 116.364H31.9186C32.5517 116.364 33.0519 116.901 33.0068 117.532L31.7081 135.714C31.6673 136.285 31.1923 136.727 30.6199 136.727H27.5606C26.9882 136.727 26.5132 136.285 26.4724 135.714L25.1737 117.532Z" fill="white"/>
<path fill-rule="evenodd" clip-rule="evenodd" d="M24.2669 117.597C24.1842 116.439 25.1011 115.455 26.2618 115.455H31.9186C33.0793 115.455 33.9962 116.439 33.9135 117.597L32.6148 135.779C32.5401 136.826 31.6692 137.636 30.6199 137.636H27.5605C26.5112 137.636 25.6404 136.826 25.5656 135.779L24.2669 117.597ZM26.2618 117.273C26.1563 117.273 26.0729 117.362 26.0805 117.468L27.3792 135.649C27.386 135.745 27.4651 135.818 27.5605 135.818H30.6199C30.7153 135.818 30.7945 135.745 30.8013 135.649L32.1 117.468C32.1075 117.362 32.0241 117.273 31.9186 117.273H26.2618Z" fill="black"/>
<path d="M26.1807 142.546C26.1807 140.939 27.4831 139.637 29.0898 139.637C30.6964 139.637 31.9988 140.939 31.9988 142.546C31.9988 144.152 30.6964 145.455 29.0898 145.455C27.4831 145.455 26.1807 144.152 26.1807 142.546Z" fill="white"/>
<path fill-rule="evenodd" clip-rule="evenodd" d="M25.272 142.546C25.272 140.437 26.9814 138.727 29.0902 138.727C31.1989 138.727 32.9083 140.437 32.9083 142.546C32.9083 144.654 31.1989 146.364 29.0902 146.364C26.9814 146.364 25.272 144.654 25.272 142.546ZM29.0902 140.546C27.9856 140.546 27.0902 141.441 27.0902 142.546C27.0902 143.65 27.9856 144.546 29.0902 144.546C30.1947 144.546 31.0902 143.65 31.0902 142.546C31.0902 141.441 30.1947 140.546 29.0902 140.546Z" fill="black"/>
</g>
<defs>
<filter id="filter0_d_1457_45766" x="-17.5454" y="-16.8182" width="195.091" height="194.364" filterUnits="userSpaceOnUse" color-interpolation-filters="sRGB">
<feFlood flood-opacity="0" result="BackgroundImageFix"/>
<feColorMatrix in="SourceAlpha" type="matrix" values="0 0 0 0 0 0 0 0 0 0 0 0 0 0 0 0 0 0 127 0" result="hardAlpha"/>
<feOffset/>
<feGaussianBlur stdDeviation="17.5"/>
<feColorMatrix type="matrix" values="0 0 0 0 0 0 0 0 0 0 0 0 0 0 0 0 0 0 0.05 0"/>
<feBlend mode="normal" in2="BackgroundImageFix" result="effect1_dropShadow_1457_45766"/>
<feBlend mode="normal" in="SourceGraphic" in2="effect1_dropShadow_1457_45766" result="shape"/>
</filter>
<clipPath id="clip0_1457_45766">
<rect width="160" height="160" fill="white"/>
</clipPath>
<clipPath id="clip1_1457_45766">
<rect width="125.091" height="124.364" fill="white" transform="translate(17.4546 18.1818)"/>
</clipPath>
</defs>
</svg>
