<svg width="81" height="80" viewBox="0 0 81 80" fill="none" xmlns="http://www.w3.org/2000/svg">
<path d="M72.5 40C72.5 57.6731 58.1731 72 40.5 72C22.8269 72 8.5 57.6731 8.5 40C8.5 22.3269 22.8269 8 40.5 8C58.1731 8 72.5 22.3269 72.5 40Z" fill="#FFC300"/>
<path fill-rule="evenodd" clip-rule="evenodd" d="M40.5 69.5C56.7924 69.5 70 56.2924 70 40C70 23.7076 56.7924 10.5 40.5 10.5C24.2076 10.5 11 23.7076 11 40C11 56.2924 24.2076 69.5 40.5 69.5ZM40.5 72C58.1731 72 72.5 57.6731 72.5 40C72.5 22.3269 58.1731 8 40.5 8C22.8269 8 8.5 22.3269 8.5 40C8.5 57.6731 22.8269 72 40.5 72Z" fill="black"/>
<path d="M35.1138 21.607C35.0517 20.7387 35.7394 20.0001 36.6099 20.0001H44.388C45.2585 20.0001 45.9462 20.7387 45.8842 21.607L44.0985 46.607C44.0424 47.392 43.3893 48.0001 42.6023 48.0001H38.3957C37.6087 48.0001 36.9555 47.392 36.8995 46.607L35.1138 21.607Z" fill="white"/>
<path fill-rule="evenodd" clip-rule="evenodd" d="M33.867 21.6961C33.7533 20.1042 35.0141 18.7501 36.61 18.7501H44.3881C45.984 18.7501 47.2448 20.1042 47.1311 21.6961L45.3454 46.6961C45.2426 48.1351 44.0451 49.2501 42.6024 49.2501H38.3957C36.953 49.2501 35.7555 48.1351 35.6527 46.6961L33.867 21.6961ZM36.61 21.2501C36.4649 21.2501 36.3503 21.3732 36.3606 21.5179L38.1464 46.5179C38.1557 46.6488 38.2646 46.7501 38.3957 46.7501H42.6024C42.7335 46.7501 42.8424 46.6488 42.8517 46.5179L44.6374 21.5179C44.6478 21.3732 44.5332 21.2501 44.3881 21.2501H36.61Z" fill="black"/>
<path d="M36.4988 56.0002C36.4988 53.7911 38.2896 52.0002 40.4988 52.0002C42.7079 52.0002 44.4988 53.7911 44.4988 56.0002C44.4988 58.2094 42.7079 60.0002 40.4988 60.0002C38.2896 60.0002 36.4988 58.2094 36.4988 56.0002Z" fill="white"/>
<path fill-rule="evenodd" clip-rule="evenodd" d="M35.2488 56.0002C35.2488 53.1007 37.5993 50.7502 40.4988 50.7502C43.3983 50.7502 45.7488 53.1007 45.7488 56.0002C45.7488 58.8997 43.3983 61.2502 40.4988 61.2502C37.5993 61.2502 35.2488 58.8997 35.2488 56.0002ZM40.4988 53.2502C38.98 53.2502 37.7488 54.4815 37.7488 56.0002C37.7488 57.519 38.98 58.7502 40.4988 58.7502C42.0176 58.7502 43.2488 57.519 43.2488 56.0002C43.2488 54.4815 42.0176 53.2502 40.4988 53.2502Z" fill="black"/>
</svg>
