<svg width="24" height="24" viewBox="0 0 24 24" fill="none" xmlns="http://www.w3.org/2000/svg">
<path fill-rule="evenodd" clip-rule="evenodd" d="M19 4C19 3.44772 18.5523 3 18 3C17.4477 3 17 3.44772 17 4V20C17 20.5523 17.4477 21 18 21C18.5523 21 19 20.5523 19 20V4ZM14.0556 10.8284H8.41421L9.53553 9.70711C9.92606 9.31658 9.92606 8.68342 9.53553 8.29289C9.14501 7.90237 8.51184 7.90237 8.12132 8.29289L5.29289 11.1213C5.09763 11.3166 5 11.5725 5 11.8284C5 12.0843 5.09763 12.3403 5.29289 12.5355L8.12132 15.364C8.51184 15.7545 9.14501 15.7545 9.53553 15.364C9.92606 14.9734 9.92606 14.3403 9.53553 13.9497L8.41421 12.8284H14.0556C14.6079 12.8284 15.0556 12.3807 15.0556 11.8284C15.0556 11.2761 14.6079 10.8284 14.0556 10.8284Z" fill="#00A970"/>
</svg>
