<svg width="24" height="24" viewBox="0 0 24 24" fill="none" xmlns="http://www.w3.org/2000/svg">
<path fill-rule="evenodd" clip-rule="evenodd" d="M19 14C19 12.8954 18.1046 12 17 12V7C17 4.23858 14.7614 2 12 2C9.23858 2 7 4.23858 7 7V12C5.89543 12 5 12.8954 5 14V20C5 21.1046 5.89543 22 7 22H17C18.1046 22 19 21.1046 19 20V14ZM7 20V14H17V20H7ZM15 12V7C15 5.34315 13.6569 4 12 4C10.3431 4 9 5.34315 9 7V12H15ZM10 17C10 18.1046 10.8954 19 12 19C13.1046 19 14 18.1046 14 17C14 15.8954 13.1046 15 12 15C10.8954 15 10 15.8954 10 17Z" fill="#00A970"/>
</svg>
