<svg width="24" height="24" viewBox="0 0 24 24" fill="none" xmlns="http://www.w3.org/2000/svg">
<path fill-rule="evenodd" clip-rule="evenodd" d="M2.90569 7.36069L10.3585 2.4889C11.3558 1.83703 12.6442 1.83703 13.6415 2.4889L21.0943 7.36069C21.6594 7.73009 22 8.35964 22 9.03476V19.9527C22 21.0573 21.1046 21.9527 20 21.9527H4C2.89543 21.9527 2 21.0573 2 19.9527V9.03476C2 8.35964 2.3406 7.73009 2.90569 7.36069ZM4 11.2072V19.9527H20V11.2255L14.0061 16.5667C12.8686 17.5804 11.1519 17.5804 10.0144 16.5667L4 11.2072ZM4.3278 8.82048L11.345 15.0735C11.7242 15.4114 12.2964 15.4114 12.6756 15.0735L19.684 8.82823L12.5472 4.16297C12.2147 3.94568 11.7853 3.94568 11.4528 4.16297L4.3278 8.82048Z" fill="#00A970"/>
</svg>
