<svg width="24" height="24" viewBox="0 0 24 24" fill="none" xmlns="http://www.w3.org/2000/svg">
<path d="M6.24603 16.002L11.5199 10.6852L19.7776 19.0102L12.5392 22.3623L6.24603 16.002Z" fill="white"/>
<path fill-rule="evenodd" clip-rule="evenodd" d="M11.7501 10.9173L6.47627 16.2341L6.01578 15.7699L11.2896 10.4531L11.7501 10.9173Z" fill="black"/>
<path d="M5.26701 8.35628C4.72089 7.80571 4.72089 6.91307 5.26701 6.3625C5.81313 5.81193 6.69857 5.81193 7.24469 6.3625L11.4266 10.5785C11.9727 11.1291 11.9727 12.0217 11.4266 12.5723C10.8805 13.1228 9.99506 13.1228 9.44894 12.5723L5.26701 8.35628Z" fill="white"/>
<path fill-rule="evenodd" clip-rule="evenodd" d="M5.00293 8.62252C4.31095 7.92491 4.31096 6.79387 5.00293 6.09626C5.6949 5.39865 6.81681 5.39865 7.50879 6.09626L11.6907 10.3122C12.3827 11.0099 12.3827 12.1409 11.6907 12.8385C10.9987 13.5361 9.87684 13.5361 9.18486 12.8385L5.00293 8.62252ZM5.5311 6.62873C5.13083 7.03226 5.13083 7.68652 5.5311 8.09005L9.71304 12.306C10.1133 12.7096 10.7623 12.7096 11.1625 12.306C11.5628 11.9025 11.5628 11.2483 11.1625 10.8447L6.98061 6.62873C6.58034 6.2252 5.93138 6.2252 5.5311 6.62873Z" fill="black"/>
<path d="M8.11166 3.23084C8.11166 2.86971 8.40442 2.57695 8.76556 2.57695H16.0348C16.396 2.57695 16.6887 2.86971 16.6887 3.23084V18.089C16.6887 18.4501 16.396 18.7429 16.0348 18.7429H8.76556C8.40442 18.7429 8.11166 18.4501 8.11166 18.089V3.23084Z" fill="#00A970"/>
<path fill-rule="evenodd" clip-rule="evenodd" d="M7.78473 3.23084C7.78473 2.68914 8.22387 2.25 8.76557 2.25H16.0348C16.5765 2.25 17.0157 2.68914 17.0157 3.23084V18.089C17.0157 18.6307 16.5765 19.0699 16.0348 19.0699H8.76557C8.22387 19.0699 7.78473 18.6307 7.78473 18.089V3.23084ZM8.76557 2.90389C8.585 2.90389 8.43862 3.05027 8.43862 3.23084V18.089C8.43862 18.2696 8.585 18.416 8.76557 18.416H16.0348C16.2154 18.416 16.3618 18.2696 16.3618 18.089V3.23084C16.3618 3.05027 16.2154 2.90389 16.0348 2.90389H8.76557Z" fill="black"/>
<path d="M13.3326 2.57658L16.036 2.57658C16.3971 2.57658 16.6898 2.86934 16.6898 3.23048L16.6898 5.9601H16.6889C14.8353 5.9601 13.3327 4.44525 13.3326 2.57658Z" fill="white"/>
<path fill-rule="evenodd" clip-rule="evenodd" d="M13.0326 2.27666L16.0359 2.27666C16.5628 2.27666 16.9898 2.70373 16.9898 3.23055L16.9898 6.26018H16.6889C14.6673 6.26018 13.0327 4.60872 13.0326 2.57666L13.0326 2.27666ZM13.6469 2.87666C13.787 4.34119 14.9417 5.5036 16.3898 5.64559L16.3898 3.23055C16.3898 3.0351 16.2314 2.87666 16.0359 2.87666L13.6469 2.87666Z" fill="black"/>
<path d="M8.08408 5.94691L8.08408 3.2436C8.08408 2.88247 8.37683 2.58971 8.73797 2.58971L11.4676 2.58971L11.4676 2.59067C11.4676 4.44426 9.95275 5.94689 8.08408 5.94691Z" fill="white"/>
<path fill-rule="evenodd" clip-rule="evenodd" d="M7.78415 6.24693L7.78415 3.24362C7.78415 2.7168 8.21122 2.28972 8.73804 2.28972L11.7677 2.28972L11.7677 2.59069C11.7677 4.61224 10.1162 6.2469 8.08415 6.24693L7.78415 6.24693ZM8.38415 5.63266C9.84869 5.49259 11.0111 4.33785 11.1531 2.88972L8.73804 2.88972C8.54259 2.88972 8.38415 3.04817 8.38415 3.24362L8.38415 5.63266Z" fill="black"/>
<path d="M9.41702 9.71935C9.41702 8.07171 10.7527 6.71173 12.4003 6.71173C14.048 6.71173 15.3837 8.07171 15.3837 9.71935C15.3837 11.367 14.048 12.727 12.4003 12.727C10.7527 12.727 9.41702 11.367 9.41702 9.71935Z" fill="white"/>
<path fill-rule="evenodd" clip-rule="evenodd" d="M9.11703 9.71935C9.11703 7.90919 10.5839 6.41173 12.4004 6.41173C14.2168 6.41173 15.6837 7.90919 15.6837 9.71935C15.6837 11.5295 14.2168 13.027 12.4004 13.027C10.5839 13.027 9.11703 11.5295 9.11703 9.71935ZM12.4004 7.01173C10.9216 7.01173 9.71703 8.23421 9.71703 9.71935C9.71703 11.2045 10.9216 12.427 12.4004 12.427C13.8792 12.427 15.0837 11.2045 15.0837 9.71935C15.0837 8.23421 13.8792 7.01173 12.4004 7.01173Z" fill="black"/>
<path d="M11.3847 11.2233H11.9046V9.86063L11.3847 9.59663V11.2233Z" fill="black"/>
<path d="M12.9003 9.10703L12.1436 8.91709C11.9778 8.85872 11.9041 8.80557 11.9041 8.61998V8.0641H11.3834V8.63741C11.3834 9.00945 11.4537 9.28303 12.0021 9.42156L12.7597 9.61151H12.7666C12.9272 9.66814 12.9992 9.72216 12.9992 9.906V11.2086H13.5199V9.89467C13.5199 9.3205 13.2656 9.19765 12.9011 9.11052" fill="black"/>
<path d="M5.55738 16.5444C5.01126 15.9938 5.01126 15.1012 5.55738 14.5506C6.10351 14.0001 6.98895 14.0001 7.53507 14.5506L10.0401 17.0761C10.5863 17.6267 10.5863 18.5193 10.0401 19.0699C9.49401 19.6204 8.60857 19.6204 8.06245 19.0699L5.55738 16.5444Z" fill="white"/>
<path fill-rule="evenodd" clip-rule="evenodd" d="M5.2933 16.8106C4.60133 16.113 4.60133 14.982 5.2933 14.2844C5.98528 13.5868 7.10719 13.5868 7.79916 14.2844L10.3042 16.8098C10.9962 17.5075 10.9962 18.6385 10.3042 19.3361C9.61226 20.0337 8.49034 20.0337 7.79837 19.3361L5.2933 16.8106ZM5.82148 14.8169C5.42121 15.2204 5.42121 15.8746 5.82148 16.2782L8.32655 18.8036C8.72682 19.2072 9.37578 19.2072 9.77605 18.8036C10.1763 18.4001 10.1763 17.7459 9.77605 17.3423L7.27099 14.8169C6.87072 14.4133 6.22175 14.4133 5.82148 14.8169Z" fill="black"/>
<path d="M6.48884 13.5366C5.94272 12.986 5.94272 12.0934 6.48884 11.5428C7.03496 10.9923 7.9204 10.9923 8.46653 11.5428L10.9716 14.0683C11.5177 14.6189 11.5177 15.5115 10.9716 16.0621C10.4255 16.6126 9.54003 16.6126 8.99391 16.0621L6.48884 13.5366Z" fill="white"/>
<path fill-rule="evenodd" clip-rule="evenodd" d="M6.22473 13.8029C5.53276 13.1052 5.53276 11.9742 6.22473 11.2766C6.9167 10.579 8.03862 10.579 8.73059 11.2766L11.2357 13.8021C11.9276 14.4997 11.9276 15.6307 11.2357 16.3283C10.5437 17.0259 9.42177 17.0259 8.7298 16.3283L6.22473 13.8029ZM6.75291 11.8091C6.35264 12.2126 6.35264 12.8668 6.75291 13.2704L9.25797 15.7958C9.65824 16.1994 10.3072 16.1994 10.7075 15.7958C11.1078 15.3923 11.1078 14.7381 10.7075 14.3345L8.20241 11.8091C7.80214 11.4055 7.15318 11.4055 6.75291 11.8091Z" fill="black"/>
<path fill-rule="evenodd" clip-rule="evenodd" d="M15.4382 15.1052C15.4402 14.1225 16.231 13.3269 17.2057 13.3269C18.1818 13.3269 18.9731 14.1247 18.9731 15.1088V17.6576L20.0173 18.7017C20.1637 18.8481 20.1647 19.0865 20.0194 19.2342C19.8741 19.3818 19.6377 19.3828 19.4912 19.2363L18.4447 18.1898C18.3048 18.0499 18.2262 17.8596 18.2262 17.661V15.1088C18.2262 14.5406 17.7693 14.08 17.2057 14.08C16.6429 14.08 16.1863 14.5393 16.1852 15.1067L16.1763 19.5314C16.1759 19.7394 16.0083 19.9076 15.8021 19.9072C15.5958 19.9068 15.4289 19.7379 15.4294 19.5299L15.4382 15.1052Z" fill="black"/>
<path d="M13.6278 16.4815C12.8554 16.4815 12.2293 15.8503 12.2293 15.0717C12.2293 14.2931 12.8554 13.6619 13.6278 13.6619H17.1705C17.9428 13.6619 18.5689 14.2931 18.5689 15.0717C18.5689 15.8503 17.9428 16.4815 17.1705 16.4815H13.6278Z" fill="white"/>
<path fill-rule="evenodd" clip-rule="evenodd" d="M13.6278 16.858C12.6492 16.858 11.8559 16.0583 11.8559 15.0717C11.8559 14.0851 12.6492 13.2854 13.6278 13.2854H17.1705C18.1491 13.2854 18.9424 14.0851 18.9424 15.0717C18.9424 16.0583 18.1491 16.858 17.1705 16.858H13.6278ZM12.6028 15.0717C12.6028 15.6424 13.0617 16.105 13.6278 16.105H17.1705C17.7365 16.105 18.1954 15.6424 18.1954 15.0717C18.1954 14.501 17.7365 14.0384 17.1705 14.0384H13.6278C13.0617 14.0384 12.6028 14.501 12.6028 15.0717Z" fill="black"/>
<path d="M18.2241 19.4999L16.1766 19.4999L16.1766 15.1499C16.1766 14.5448 16.635 14.0399 17.2004 14.0399C17.7658 14.0399 18.2241 14.5448 18.2241 15.1499C18.2241 15.755 18.2241 19.4999 18.2241 19.4999Z" fill="white"/>
<path fill-rule="evenodd" clip-rule="evenodd" d="M9.33026 19.1098C9.47671 18.9633 9.71415 18.9633 9.86059 19.1098L12.7205 21.9697C12.8669 22.1161 12.8669 22.3536 12.7205 22.5C12.574 22.6464 12.3366 22.6464 12.1902 22.5L9.33026 19.6401C9.18382 19.4937 9.18382 19.2562 9.33026 19.1098Z" fill="black"/>
</svg>
