<svg width="24" height="24" viewBox="0 0 24 24" fill="none" xmlns="http://www.w3.org/2000/svg">
<path fill-rule="evenodd" clip-rule="evenodd" d="M12 2C14.2091 2 16 3.79086 16 6V8C16 10.2091 14.2091 12 12 12C9.79086 12 8 10.2091 8 8V6C8 3.79086 9.79086 2 12 2ZM8.53358 12.0696C9.04741 11.8672 9.6281 12.1195 9.83058 12.6334C10.0331 13.1472 9.78066 13.7279 9.26683 13.9304C7.89905 14.4694 7 15.79 7 17.2601V19C7 19.5523 7.44772 20 8 20H16C16.5523 20 17 19.5523 17 19V17.3532C17 15.8352 16.0626 14.4749 14.644 13.9345C14.1279 13.7379 13.8689 13.1601 14.0655 12.644C14.2621 12.1279 14.8399 11.8689 15.356 12.0655C17.5501 12.9013 19 15.0053 19 17.3532V19C19 20.6569 17.6569 22 16 22H8C6.34315 22 5 20.6569 5 19V17.2601C5 14.9684 6.40145 12.9098 8.53358 12.0696ZM10 6C10 4.89543 10.8954 4 12 4C13.1046 4 14 4.89543 14 6V8C14 9.10457 13.1046 10 12 10C10.8954 10 10 9.10457 10 8V6Z" fill="#00A970"/>
</svg>
