<svg width="64" height="64" viewBox="0 0 64 64" fill="none" xmlns="http://www.w3.org/2000/svg">
<path d="M19.6867 19.0389C19.6867 17.9655 20.5568 17.0955 21.6301 17.0955H42.3708C43.4441 17.0955 44.3142 17.9655 44.3142 19.0389V36.2613C44.3142 37.3346 43.4441 38.2047 42.3708 38.2047H21.6301C20.5568 38.2047 19.6867 37.3346 19.6867 36.2613V19.0389Z" fill="black"/>
<path fill-rule="evenodd" clip-rule="evenodd" d="M19.2009 19.0389C19.2009 17.6972 20.2885 16.6096 21.6301 16.6096H42.3708C43.7124 16.6096 44.8 17.6972 44.8 19.0389V36.2613C44.8 37.603 43.7124 38.6906 42.3708 38.6906H21.6301C20.2885 38.6906 19.2009 37.603 19.2009 36.2613V19.0389ZM21.6301 17.5813C20.8251 17.5813 20.1726 18.2339 20.1726 19.0389V36.2613C20.1726 37.0663 20.8251 37.7189 21.6301 37.7189H42.3708C43.1758 37.7189 43.8283 37.0663 43.8283 36.2613V19.0389C43.8283 18.2339 43.1758 17.5813 42.3708 17.5813H21.6301Z" fill="black"/>
<path fill-rule="evenodd" clip-rule="evenodd" d="M22.6184 12.4045C22.6184 7.87068 26.6219 4.19531 31.5605 4.19531C36.4991 4.19531 40.5026 7.87068 40.5026 12.4045V17.5394C40.5026 17.9419 40.1764 18.2681 39.7739 18.2681H37.3991C36.9966 18.2681 36.6703 17.9419 36.6703 17.5394V12.4045C36.6703 9.81373 34.3826 7.71352 31.5605 7.71352C28.7385 7.71352 26.4507 9.81373 26.4507 12.4045V17.5394C26.4507 17.9419 26.1245 18.2681 25.722 18.2681H23.3472C22.9447 18.2681 22.6184 17.9419 22.6184 17.5394V12.4045Z" fill="black"/>
<path fill-rule="evenodd" clip-rule="evenodd" d="M22.1326 12.4045C22.1326 7.56408 26.3936 3.70947 31.5605 3.70947C36.7275 3.70947 40.9885 7.56408 40.9885 12.4045V17.5394C40.9885 18.2102 40.4447 18.754 39.7739 18.754H37.3991C36.7283 18.754 36.1845 18.2102 36.1845 17.5394V12.4045C36.1845 10.1203 34.1542 8.19938 31.5605 8.19938C28.9669 8.19938 26.9366 10.1203 26.9366 12.4045V17.5394C26.9366 18.2102 26.3928 18.754 25.722 18.754H23.3472C22.6764 18.754 22.1326 18.2102 22.1326 17.5394V12.4045ZM31.5605 4.68117C26.8503 4.68117 23.1043 8.17729 23.1043 12.4045V17.5394C23.1043 17.6735 23.213 17.7823 23.3472 17.7823H25.722C25.8561 17.7823 25.9649 17.6735 25.9649 17.5394V12.4045C25.9649 9.50713 28.5101 7.22768 31.5605 7.22768C34.611 7.22768 37.1562 9.50713 37.1562 12.4045V17.5394C37.1562 17.6735 37.2649 17.7823 37.3991 17.7823H39.7739C39.908 17.7823 40.0168 17.6735 40.0168 17.5394V12.4045C40.0168 8.17729 36.2707 4.68117 31.5605 4.68117Z" fill="black"/>
<path fill-rule="evenodd" clip-rule="evenodd" d="M22.6184 12.4045C22.6184 7.87068 26.2938 4.19531 30.8276 4.19531C35.3614 4.19531 39.0367 7.87068 39.0367 12.4045V17.5394C39.0367 17.9419 38.7104 18.2681 38.3079 18.2681H36.2473C35.8448 18.2681 35.5185 17.9419 35.5185 17.5394V12.4045C35.5185 9.81373 33.4183 7.71352 30.8276 7.71352C28.2368 7.71352 26.1366 9.81373 26.1366 12.4045V17.5394C26.1366 17.9419 25.8103 18.2681 25.4078 18.2681H23.3472C22.9447 18.2681 22.6184 17.9419 22.6184 17.5394V12.4045Z" fill="white"/>
<path fill-rule="evenodd" clip-rule="evenodd" d="M22.1326 12.4045C22.1326 7.60236 26.0255 3.70947 30.8276 3.70947C35.6297 3.70947 39.5226 7.60236 39.5226 12.4045V17.5394C39.5226 18.2102 38.9788 18.754 38.3079 18.754H36.2473C35.5765 18.754 35.0327 18.2102 35.0327 17.5394V12.4045C35.0327 10.0821 33.15 8.19938 30.8276 8.19938C28.5052 8.19938 26.6225 10.0821 26.6225 12.4045V17.5394C26.6225 18.2102 26.0787 18.754 25.4079 18.754H23.3472C22.6764 18.754 22.1326 18.2102 22.1326 17.5394V12.4045ZM30.8276 4.68117C26.5621 4.68117 23.1043 8.13901 23.1043 12.4045V17.5394C23.1043 17.6735 23.213 17.7823 23.3472 17.7823H25.4079C25.542 17.7823 25.6508 17.6735 25.6508 17.5394V12.4045C25.6508 9.54541 27.9685 7.22768 30.8276 7.22768C33.6866 7.22768 36.0044 9.54541 36.0044 12.4045V17.5394C36.0044 17.6735 36.1131 17.7823 36.2473 17.7823H38.3079C38.4421 17.7823 38.5509 17.6735 38.5509 17.5394V12.4045C38.5509 8.13901 35.093 4.68117 30.8276 4.68117Z" fill="black"/>
<path d="M19.6867 19.0389C19.6867 17.9655 20.5568 17.0955 21.6301 17.0955H40.0253C41.0986 17.0955 41.9687 17.9655 41.9687 19.0389V36.2613C41.9687 37.3346 41.0986 38.2047 40.0253 38.2047H21.6301C20.5568 38.2047 19.6867 37.3346 19.6867 36.2613V19.0389Z" fill="#00A970"/>
<path fill-rule="evenodd" clip-rule="evenodd" d="M19.2009 19.0389C19.2009 17.6972 20.2885 16.6096 21.6301 16.6096H40.0253C41.3669 16.6096 42.4545 17.6972 42.4545 19.0389V36.2613C42.4545 37.603 41.3669 38.6906 40.0253 38.6906H21.6301C20.2885 38.6906 19.2009 37.603 19.2009 36.2613V19.0389ZM21.6301 17.5813C20.8251 17.5813 20.1726 18.2339 20.1726 19.0389V36.2613C20.1726 37.0663 20.8251 37.7189 21.6301 37.7189H40.0253C40.8303 37.7189 41.4829 37.0663 41.4829 36.2613V19.0389C41.4829 18.2339 40.8303 17.5813 40.0253 17.5813H21.6301Z" fill="black"/>
<path d="M32.6929 31.4606C32.7863 31.9123 32.4623 32.3409 32.023 32.3409H29.6288C29.1895 32.3409 28.8655 31.9123 28.9589 31.4606L29.8551 27.2184C29.8773 27.1137 29.8275 27.008 29.7385 26.9486C29.0698 26.5024 28.6569 25.6762 28.8051 24.7547C28.9424 23.8745 29.6178 23.1506 30.4525 22.9942C31.7484 22.751 32.8796 23.7992 32.8796 25.1253C32.8796 25.893 32.4933 26.5626 31.9135 26.9487C31.8244 27.008 31.7745 27.1138 31.7967 27.2185L32.6929 31.4606Z" fill="black"/>
<path d="M4.79999 50.4C4.79999 45.9817 8.38171 42.4 12.8 42.4H53.2C57.6183 42.4 61.2 45.9817 61.2 50.4C61.2 54.8183 57.6183 58.4 53.2 58.4H12.8C8.38171 58.4 4.79999 54.8183 4.79999 50.4Z" fill="black"/>
<path fill-rule="evenodd" clip-rule="evenodd" d="M53.2 43.2H12.8C8.82354 43.2 5.59999 46.4236 5.59999 50.4C5.59999 54.3765 8.82354 57.6 12.8 57.6H53.2C57.1764 57.6 60.4 54.3765 60.4 50.4C60.4 46.4236 57.1764 43.2 53.2 43.2ZM12.8 42.4C8.38171 42.4 4.79999 45.9817 4.79999 50.4C4.79999 54.8183 8.38171 58.4 12.8 58.4H53.2C57.6183 58.4 61.2 54.8183 61.2 50.4C61.2 45.9817 57.6183 42.4 53.2 42.4H12.8Z" fill="black"/>
<path d="M4.79999 50.4C4.79999 45.9817 8.38171 42.4 12.8 42.4H51.2C55.6183 42.4 59.2 45.9817 59.2 50.4C59.2 54.8183 55.6183 58.4 51.2 58.4H12.8C8.38171 58.4 4.79999 54.8183 4.79999 50.4Z" fill="white"/>
<path fill-rule="evenodd" clip-rule="evenodd" d="M51.2 43.2H12.8C8.82354 43.2 5.59999 46.4236 5.59999 50.4C5.59999 54.3765 8.82354 57.6 12.8 57.6H51.2C55.1764 57.6 58.4 54.3765 58.4 50.4C58.4 46.4236 55.1764 43.2 51.2 43.2ZM12.8 42.4C8.38171 42.4 4.79999 45.9817 4.79999 50.4C4.79999 54.8183 8.38171 58.4 12.8 58.4H51.2C55.6183 58.4 59.2 54.8183 59.2 50.4C59.2 45.9817 55.6183 42.4 51.2 42.4H12.8Z" fill="black"/>
<path d="M17.4917 48.4001C17.268 48.0165 16.7743 47.886 16.3899 48.1071L14.8063 49.0142V47.2C14.8063 46.7579 14.4457 46.4 13.9999 46.4C13.5543 46.4 13.1935 46.7578 13.1935 47.2V49.0142L11.61 48.1072C11.2242 47.8861 10.732 48.0166 10.5083 48.4002C10.2854 48.783 10.4178 49.272 10.8036 49.4932L12.387 50.4L10.8036 51.307C10.4178 51.5281 10.2854 52.0172 10.5083 52.4C10.6579 52.657 10.9288 52.8 11.2076 52.8C11.3447 52.8 11.4832 52.7656 11.61 52.693L13.1936 51.7858V53.6C13.1936 54.0422 13.5543 54.4 14 54.4C14.4457 54.4 14.8064 54.0422 14.8064 53.6V51.7858L16.39 52.6929C16.5168 52.7656 16.6554 52.7999 16.7924 52.7999C17.0712 52.7999 17.3421 52.6569 17.4918 52.3999C17.7147 52.0171 17.5823 51.528 17.1964 51.3069L15.613 50.4L17.1964 49.4931C17.5822 49.272 17.7146 48.7829 17.4917 48.4001Z" fill="black"/>
<path d="M29.4917 48.4001C29.268 48.0165 28.7743 47.886 28.3899 48.1071L26.8063 49.0142V47.2C26.8063 46.7579 26.4457 46.4 25.9999 46.4C25.5543 46.4 25.1935 46.7578 25.1935 47.2V49.0142L23.61 48.1072C23.2242 47.8861 22.732 48.0166 22.5083 48.4002C22.2854 48.783 22.4178 49.272 22.8036 49.4932L24.387 50.4L22.8036 51.307C22.4178 51.5281 22.2854 52.0172 22.5083 52.4C22.6579 52.657 22.9288 52.8 23.2076 52.8C23.3447 52.8 23.4832 52.7656 23.61 52.693L25.1936 51.7858V53.6C25.1936 54.0422 25.5543 54.4 26 54.4C26.4457 54.4 26.8064 54.0422 26.8064 53.6V51.7858L28.39 52.6929C28.5168 52.7656 28.6554 52.7999 28.7924 52.7999C29.0712 52.7999 29.3421 52.6569 29.4918 52.3999C29.7147 52.0171 29.5823 51.528 29.1964 51.3069L27.613 50.4L29.1964 49.4931C29.5822 49.272 29.7146 48.7829 29.4917 48.4001Z" fill="black"/>
<path d="M41.4917 48.4001C41.268 48.0165 40.7743 47.886 40.3899 48.1071L38.8063 49.0142V47.2C38.8063 46.7579 38.4457 46.4 37.9999 46.4C37.5542 46.4 37.1935 46.7578 37.1935 47.2V49.0142L35.61 48.1072C35.2242 47.8861 34.732 48.0166 34.5083 48.4002C34.2854 48.783 34.4178 49.272 34.8036 49.4932L36.387 50.4L34.8036 51.307C34.4178 51.5281 34.2854 52.0172 34.5083 52.4C34.6579 52.657 34.9288 52.8 35.2076 52.8C35.3447 52.8 35.4832 52.7656 35.61 52.693L37.1936 51.7858V53.6C37.1936 54.0422 37.5542 54.4 38 54.4C38.4457 54.4 38.8064 54.0422 38.8064 53.6V51.7858L40.39 52.6929C40.5168 52.7656 40.6554 52.7999 40.7924 52.7999C41.0712 52.7999 41.342 52.6569 41.4918 52.3999C41.7147 52.0171 41.5823 51.528 41.1964 51.3069L39.613 50.4L41.1964 49.4931C41.5822 49.272 41.7146 48.7829 41.4917 48.4001Z" fill="black"/>
<path d="M53.4917 48.4001C53.268 48.0165 52.7743 47.886 52.3899 48.1071L50.8063 49.0142V47.2C50.8063 46.7579 50.4457 46.4 49.9999 46.4C49.5542 46.4 49.1935 46.7578 49.1935 47.2V49.0142L47.61 48.1072C47.2242 47.8861 46.732 48.0166 46.5083 48.4002C46.2854 48.783 46.4178 49.272 46.8036 49.4932L48.387 50.4L46.8036 51.307C46.4178 51.5281 46.2854 52.0172 46.5083 52.4C46.6579 52.657 46.9288 52.8 47.2076 52.8C47.3447 52.8 47.4832 52.7656 47.61 52.693L49.1936 51.7858V53.6C49.1936 54.0422 49.5542 54.4 50 54.4C50.4457 54.4 50.8064 54.0422 50.8064 53.6V51.7858L52.39 52.6929C52.5168 52.7656 52.6554 52.7999 52.7924 52.7999C53.0712 52.7999 53.342 52.6569 53.4918 52.3999C53.7147 52.0171 53.5823 51.528 53.1964 51.3069L51.613 50.4L53.1964 49.4931C53.5822 49.272 53.7146 48.7829 53.4917 48.4001Z" fill="black"/>
</svg>
