<svg width="65" height="64" viewBox="0 0 65 64" fill="none" xmlns="http://www.w3.org/2000/svg">
<rect x="0.333313" width="64" height="64" rx="16" fill="white"/>
<g clip-path="url(#clip0_1456_14633)">
<path d="M44.1526 28.2581C44.2404 28.1327 44.4262 28.1327 44.514 28.2581L47.5904 32.6529C47.6927 32.7991 47.5881 33 47.4097 33H41.257C41.0785 33 40.9739 32.7991 41.0763 32.6529L44.1526 28.2581Z" fill="#00A970"/>
<path fill-rule="evenodd" clip-rule="evenodd" d="M43.743 27.9714C44.0299 27.5616 44.6368 27.5616 44.9237 27.9714L48 32.3662C48.3343 32.8438 47.9926 33.5 47.4097 33.5H41.257C40.674 33.5 40.3324 32.8438 40.6667 32.3662L43.743 27.9714ZM44.3333 28.8719L41.7937 32.5H46.873L44.3333 28.8719Z" fill="black"/>
<path d="M20.1526 28.2581C20.2404 28.1327 20.4262 28.1327 20.514 28.2581L23.5904 32.6529C23.6927 32.7991 23.5881 33 23.4097 33H17.257C17.0785 33 16.9739 32.7991 17.0763 32.6529L20.1526 28.2581Z" fill="#00A970"/>
<path fill-rule="evenodd" clip-rule="evenodd" d="M19.743 27.9714C20.0299 27.5616 20.6368 27.5616 20.9237 27.9714L24 32.3662C24.3343 32.8438 23.9926 33.5 23.4097 33.5H17.257C16.674 33.5 16.3324 32.8438 16.6667 32.3662L19.743 27.9714ZM20.3333 28.8719L17.7937 32.5H22.873L20.3333 28.8719Z" fill="black"/>
<path fill-rule="evenodd" clip-rule="evenodd" d="M22.3333 21C22.3333 20.4477 22.781 20 23.3333 20H41.3333C41.8856 20 42.3333 20.4477 42.3333 21C42.3333 21.5523 41.8856 22 41.3333 22H23.3333C22.781 22 22.3333 21.5523 22.3333 21Z" fill="black"/>
<path d="M25.3333 21H39.3333V42.2C39.3333 42.6418 38.9751 43 38.5333 43H26.1333C25.6915 43 25.3333 42.6418 25.3333 42.2V21Z" fill="#00A970"/>
<path fill-rule="evenodd" clip-rule="evenodd" d="M24.8333 20.5H39.8333V42.2C39.8333 42.918 39.2513 43.5 38.5333 43.5H26.1333C25.4153 43.5 24.8333 42.918 24.8333 42.2V20.5ZM25.8333 21.5V42.2C25.8333 42.3657 25.9676 42.5 26.1333 42.5H38.5333C38.699 42.5 38.8333 42.3657 38.8333 42.2V21.5H25.8333Z" fill="black"/>
<path fill-rule="evenodd" clip-rule="evenodd" d="M30.3346 43L26.2083 43C25.725 43 25.3333 42.6082 25.3333 42.125L25.3333 38C25.3337 38 25.3342 38 25.3346 38C28.096 38 30.3346 40.2386 30.3346 43C30.3346 43 30.3346 43 30.3346 43Z" fill="white"/>
<path fill-rule="evenodd" clip-rule="evenodd" d="M30.8346 43.5L26.2083 43.5C25.4489 43.5 24.8333 42.8844 24.8333 42.125L24.8333 37.5L25.3346 37.5C28.3722 37.5 30.8346 39.9624 30.8346 43L30.8346 43.5ZM29.8071 42.5C29.5765 40.4138 27.9197 38.7574 25.8333 38.5273L25.8333 42.125C25.8333 42.3321 26.0012 42.5 26.2083 42.5L29.8071 42.5Z" fill="black"/>
<path fill-rule="evenodd" clip-rule="evenodd" d="M39.3326 38L39.3326 42.125C39.3326 42.6082 38.9409 43 38.4576 43L34.3325 43C34.3325 40.2386 36.5711 38 39.3326 38Z" fill="white"/>
<path fill-rule="evenodd" clip-rule="evenodd" d="M38.8326 38.5275C36.7467 38.758 35.0905 40.4142 34.8599 42.5L38.4576 42.5C38.6647 42.5 38.8326 42.3321 38.8326 42.125L38.8326 38.5275ZM39.8326 42.125C39.8326 42.8844 39.217 43.5 38.4576 43.5L33.8325 43.5L33.8325 43C33.8325 39.9624 36.295 37.5 39.3326 37.5L39.8326 37.5L39.8326 42.125Z" fill="black"/>
<path d="M27.8307 31C27.8307 28.5147 29.8455 26.5 32.3307 26.5C34.816 26.5 36.8307 28.5147 36.8307 31C36.8307 33.4853 34.816 35.5 32.3307 35.5C29.8455 35.5 27.8307 33.4853 27.8307 31Z" fill="white"/>
<path fill-rule="evenodd" clip-rule="evenodd" d="M27.4307 31C27.4307 28.2938 29.6245 26.1 32.3307 26.1C35.0369 26.1 37.2307 28.2938 37.2307 31C37.2307 33.7062 35.0369 35.9 32.3307 35.9C29.6245 35.9 27.4307 33.7062 27.4307 31ZM32.3307 26.9C30.0664 26.9 28.2307 28.7356 28.2307 31C28.2307 33.2644 30.0664 35.1 32.3307 35.1C34.5951 35.1 36.4307 33.2644 36.4307 31C36.4307 28.7356 34.5951 26.9 32.3307 26.9Z" fill="black"/>
<path d="M30.8327 33.2826H31.631V31.2197L30.8327 30.8201V33.2826Z" fill="black"/>
<path d="M33.1604 30.0788L31.9982 29.7913C31.7437 29.7029 31.6304 29.6225 31.6304 29.3415V28.5H30.8307V29.3679C30.8307 29.9311 30.9387 30.3452 31.781 30.555L32.9445 30.8425H32.9552C33.2017 30.9282 33.3123 31.01 33.3123 31.2883V33.2602H34.112V31.2712C34.112 30.402 33.7215 30.216 33.1617 30.0841" fill="black"/>
</g>
<defs>
<clipPath id="clip0_1456_14633">
<rect width="32" height="32" fill="white" transform="translate(16.3333 16)"/>
</clipPath>
</defs>
</svg>
