<svg width="80" height="80" viewBox="0 0 80 80" fill="none" xmlns="http://www.w3.org/2000/svg">
<path d="M71.9999 40.0001C71.9999 57.6732 57.673 72.0001 39.9999 72.0001C22.3268 72.0001 7.99994 57.6732 7.99994 40.0001C7.99994 22.327 22.3268 8.00012 39.9999 8.00012C57.673 8.00012 71.9999 22.327 71.9999 40.0001Z" fill="#EA3654"/>
<path fill-rule="evenodd" clip-rule="evenodd" d="M39.9999 69.5001C56.2923 69.5001 69.4999 56.2925 69.4999 40.0001C69.4999 23.7077 56.2923 10.5001 39.9999 10.5001C23.7075 10.5001 10.4999 23.7077 10.4999 40.0001C10.4999 56.2925 23.7075 69.5001 39.9999 69.5001ZM39.9999 72.0001C57.673 72.0001 71.9999 57.6732 71.9999 40.0001C71.9999 22.327 57.673 8.00012 39.9999 8.00012C22.3268 8.00012 7.99994 22.327 7.99994 40.0001C7.99994 57.6732 22.3268 72.0001 39.9999 72.0001Z" fill="black"/>
<path fill-rule="evenodd" clip-rule="evenodd" d="M34.0463 39.6463C34.2415 39.8416 34.2415 40.1582 34.0463 40.3534L27.0604 47.3393C26.4746 47.9251 26.4746 48.8749 27.0604 49.4607L30.539 52.9392C31.1247 53.525 32.0745 53.525 32.6603 52.9392L39.6462 45.9534C39.8414 45.7581 40.158 45.7581 40.3533 45.9534L47.3391 52.9392C47.9249 53.525 48.8747 53.525 49.4605 52.9392L52.9391 49.4604C53.5249 48.8746 53.5248 47.9249 52.939 47.3391L45.9532 40.3535C45.7579 40.1582 45.7579 39.8416 45.9532 39.6463L52.939 32.6607C53.5248 32.0749 53.5249 31.1252 52.9391 30.5394L49.4605 27.0606C48.8747 26.4748 47.9249 26.4748 47.3391 27.0606L40.3533 34.0464C40.158 34.2417 39.8414 34.2417 39.6462 34.0464L32.6603 27.0606C32.0745 26.4748 31.1247 26.4748 30.539 27.0606L27.0604 30.5391C26.4746 31.1249 26.4746 32.0747 27.0604 32.6605L34.0463 39.6463Z" fill="white"/>
<path fill-rule="evenodd" clip-rule="evenodd" d="M29.6551 26.1767C30.729 25.1027 32.4702 25.1027 33.5442 26.1767L39.9997 32.6322L46.4552 26.1767C47.5292 25.1027 49.2704 25.1028 50.3444 26.1767L53.823 29.6555C54.8969 30.7295 54.8969 32.4707 53.8229 33.5446L47.3674 39.9999L53.8229 46.4552C54.8969 47.5291 54.8969 49.2703 53.823 50.3443L50.3444 53.8231C49.2704 54.897 47.5292 54.8971 46.4552 53.8231L39.9997 47.3676L33.5442 53.8231C32.4702 54.8971 30.729 54.8971 29.6551 53.8231L26.1765 50.3445C25.1025 49.2706 25.1025 47.5294 26.1765 46.4554L32.632 39.9999L26.1765 33.5443C25.1026 32.4704 25.1025 30.7292 26.1765 29.6553L29.6551 26.1767ZM31.7764 27.9444C31.6788 27.8468 31.5205 27.8468 31.4228 27.9444L27.9443 31.423C27.8466 31.5207 27.8466 31.6789 27.9443 31.7766L34.9301 38.7625C35.6136 39.4459 35.6136 40.5539 34.9301 41.2373L27.9443 48.2232C27.8466 48.3208 27.8466 48.4791 27.9443 48.5768L31.4228 52.0554C31.5205 52.153 31.6788 52.153 31.7764 52.0553L38.7623 45.0695C39.4457 44.386 40.5537 44.3861 41.2372 45.0695L48.223 52.0553C48.3206 52.153 48.4789 52.153 48.5766 52.0553L52.0552 48.5766C52.1528 48.4789 52.1528 48.3206 52.0552 48.223L45.0693 41.2374C44.3859 40.5539 44.3859 39.4459 45.0693 38.7624L52.0552 31.7768C52.1528 31.6792 52.1528 31.5209 52.0552 31.4232L48.5766 27.9445C48.4789 27.8468 48.3206 27.8468 48.223 27.9445L41.2371 34.9303C40.5537 35.6137 39.4457 35.6137 38.7623 34.9303L31.7764 27.9444Z" fill="black"/>
</svg>
